<?xml version="1.0" encoding="UTF-8" standalone="no"?>
<!-- Created with Inkscape (http://www.inkscape.org/) -->

<svg
   version="1.1"
   id="svg1"
   width="397.72"
   height="486.66666"
   viewBox="0 0 397.72 486.66666"
   sodipodi:docname="guarani-fc-campinas-seeklogo.eps"
   xmlns:inkscape="http://www.inkscape.org/namespaces/inkscape"
   xmlns:sodipodi="http://sodipodi.sourceforge.net/DTD/sodipodi-0.dtd"
   xmlns="http://www.w3.org/2000/svg"
   xmlns:svg="http://www.w3.org/2000/svg">
  <defs
     id="defs1" />
  <sodipodi:namedview
     id="namedview1"
     pagecolor="#ffffff"
     bordercolor="#000000"
     borderopacity="0.25"
     inkscape:showpageshadow="2"
     inkscape:pageopacity="0.0"
     inkscape:pagecheckerboard="0"
     inkscape:deskcolor="#d1d1d1">
    <inkscape:page
       x="0"
       y="0"
       inkscape:label="1"
       id="page1"
       width="397.72"
       height="486.66666"
       margin="0"
       bleed="0" />
  </sodipodi:namedview>
  <g
     id="g1"
     inkscape:groupmode="layer"
     inkscape:label="1">
    <g
       id="group-R5">
      <path
         id="path2"
         d="m 804.398,3650 65.711,-202.53 215.851,-2.03 -172.308,-125.01 64.793,-205.88 -172.203,125.11 -175.777,-125.11 65.914,202.42 -173.438,128.47 212.903,-0.1 68.558,204.66 h -0.004"
         style="fill:#af872e;fill-opacity:1;fill-rule:nonzero;stroke:none"
         transform="matrix(0.13333333,0,0,-0.13333333,0,486.66667)" />
      <path
         id="path3"
         d="m 2178.46,3650 65.71,-202.53 215.71,-2.03 -172.26,-125.01 64.74,-205.88 -172.17,125.11 -175.78,-125.11 65.92,202.42 -173.44,128.47 212.9,-0.1 68.66,204.66 h 0.01"
         style="fill:#838a8d;fill-opacity:1;fill-rule:nonzero;stroke:none"
         transform="matrix(0.13333333,0,0,-0.13333333,0,486.66667)" />
      <path
         id="path4"
         d="m 1491.51,0 c 823.47,0 1491.41,667.891 1491.41,1491.41 0,823.62 -667.91,1491.51 -1491.41,1491.51 C 667.891,2982.92 0,2315.03 0,1491.41 0,667.891 667.891,0 1491.51,0"
         style="fill:#226a4f;fill-opacity:1;fill-rule:nonzero;stroke:none"
         transform="matrix(0.13333333,0,0,-0.13333333,0,486.66667)" />
      <path
         id="path5"
         d="M 1490.6,74 C 708.375,74 72.1172,710.262 72.1172,1492.38 c 0,782.22 636.2578,1418.48 1418.4828,1418.48 782.12,0 1418.37,-636.36 1418.37,-1418.48 C 2908.97,710.262 2272.73,74 1490.6,74 Z m 0,2777.2 c -749.272,0 -1358.866,-609.61 -1358.866,-1358.87 0,-749.158 609.61,-1358.658 1358.866,-1358.658 749.16,0 1358.67,609.5 1358.67,1358.658 0,749.27 -609.52,1358.87 -1358.67,1358.87"
         style="fill:#ffffff;fill-opacity:1;fill-rule:nonzero;stroke:none"
         transform="matrix(0.13333333,0,0,-0.13333333,0,486.66667)" />
      <path
         id="path6"
         d="m 376.148,1345.48 -35.195,-4.88 -12.715,90.94 83.207,11.59 c 9.766,-7.63 19.121,-19.43 27.973,-35.3 8.848,-15.86 14.441,-32.34 16.883,-49.53 3.054,-21.87 1.121,-41.5 -5.797,-59.1 -6.914,-17.5 -18.309,-31.53 -34.176,-42.11 -15.973,-10.48 -33.976,-17.19 -54.015,-20.04 -21.665,-2.95 -41.704,-1.12 -59.911,5.59 -18.105,6.82 -32.957,18.31 -44.453,34.69 -8.847,12.41 -14.547,28.58 -17.394,48.52 -3.559,25.94 -1.016,46.99 7.836,63.07 8.847,16.07 22.578,27.56 41.195,34.38 l 13.629,-40.79 c -9.766,-4.37 -17.086,-10.99 -21.973,-19.94 -4.777,-8.95 -6.304,-19.53 -4.574,-31.73 2.543,-18.42 10.375,-32.25 23.598,-41.51 13.222,-9.25 31.328,-12.2 54.316,-9.05 24.82,3.46 42.621,11.6 53.508,24.31 10.883,12.82 15.055,28.08 12.512,45.98 -1.223,8.75 -4.172,17.39 -8.852,25.84 -4.781,8.34 -9.969,15.46 -15.867,21.15 l -26.449,-3.76 6.714,-48.32 v 0"
         style="fill:#ffffff;fill-opacity:1;fill-rule:nonzero;stroke:none"
         transform="matrix(0.13333333,0,0,-0.13333333,0,486.66667)" />
      <path
         id="path7"
         d="m 229.781,1489.35 2.645,42.52 114.027,-7.02 c 18.106,-1.12 29.805,-1.32 35.301,-0.61 8.746,1.33 15.867,5.19 21.562,11.7 5.594,6.61 8.747,15.77 9.563,27.67 0.711,12 -1.223,21.26 -5.801,27.66 -4.574,6.51 -10.375,10.48 -17.492,12.21 -7.02,1.73 -18.922,3.05 -35.602,4.07 l -116.468,7.12 2.644,42.52 110.567,-6.82 c 25.226,-1.52 43.031,-3.76 53.3,-6.71 10.274,-2.95 18.821,-7.73 25.739,-14.34 6.711,-6.61 12,-15.16 15.562,-25.84 3.66,-10.58 4.985,-24.21 3.965,-40.89 -1.32,-20.04 -4.574,-35.19 -9.766,-45.26 -5.289,-10.07 -11.898,-17.91 -19.629,-23.5 -7.835,-5.59 -15.871,-9.05 -24.109,-10.48 -12.207,-2.03 -30.109,-2.34 -53.711,-0.91 l -112.297,6.92 v -0.01"
         style="fill:#ffffff;fill-opacity:1;fill-rule:nonzero;stroke:none"
         transform="matrix(0.13333333,0,0,-0.13333333,0,486.66667)" />
      <path
         id="path8"
         d="m 504.215,1863.45 -11.699,-44.86 -51.063,-5.69 -21.363,-81.58 42.012,-28.89 -11.497,-43.74 -183.199,132.95 11.395,43.53 225.418,28.28 z m -100.602,-54.72 -83.101,-8.24 68.558,-47.4 14.543,55.64 v 0"
         style="fill:#ffffff;fill-opacity:1;fill-rule:nonzero;stroke:none"
         transform="matrix(0.13333333,0,0,-0.13333333,0,486.66667)" />
      <path
         id="path9"
         d="m 510.824,1875.35 -189.816,92.26 39.164,80.56 c 9.863,20.24 18.715,34.17 26.648,41.7 7.832,7.53 17.496,12 28.891,13.23 11.391,1.32 22.68,-0.82 33.973,-6.21 14.136,-6.92 23.902,-16.78 29.089,-29.7 5.192,-12.92 4.985,-28.28 -0.71,-46.08 8.851,6 17.496,10.17 25.937,12.82 8.344,2.54 22.176,4.88 41.402,6.81 l 48.215,5.19 -22.277,-45.77 -54.727,-7.63 c -19.531,-2.75 -32.043,-4.89 -37.636,-6.72 -5.594,-1.73 -10.172,-4.27 -13.528,-7.63 -3.355,-3.35 -7.222,-9.46 -11.496,-18.3 l -3.762,-7.74 79.239,-38.45 -18.614,-38.34 z m -90.937,91.54 13.73,28.28 c 8.953,18.41 13.836,30.21 14.446,35.6 0.71,5.29 -0.204,10.18 -2.848,14.65 -2.442,4.37 -6.613,8.04 -12.309,10.78 -6.406,3.16 -12.308,3.87 -17.902,2.44 -5.594,-1.52 -10.477,-5.18 -14.445,-10.88 -1.93,-2.85 -6.711,-12.1 -14.239,-27.57 l -14.547,-29.9 48.114,-23.4 v 0"
         style="fill:#ffffff;fill-opacity:1;fill-rule:nonzero;stroke:none"
         transform="matrix(0.13333333,0,0,-0.13333333,0,486.66667)" />
      <path
         id="path10"
         d="m 717.227,2208.44 -27.973,-37.03 -49.336,14.24 -50.758,-67.34 27.668,-42.72 -27.16,-36.11 -118.809,192.77 27.161,35.9 219.21,-59.71 z m -113.926,-12.31 -79.953,24.01 45.265,-69.89 34.688,45.88 v 0"
         style="fill:#ffffff;fill-opacity:1;fill-rule:nonzero;stroke:none"
         transform="matrix(0.13333333,0,0,-0.13333333,0,486.66667)" />
      <path
         id="path11"
         d="m 728.008,2217.07 -140.778,157.16 30.922,27.67 158.274,-47.4 -93.988,104.97 29.496,26.45 140.679,-157.16 -31.84,-28.58 -155.125,45.77 91.75,-102.43 -29.394,-26.45 h 0.004"
         style="fill:#ffffff;fill-opacity:1;fill-rule:nonzero;stroke:none"
         transform="matrix(0.13333333,0,0,-0.13333333,0,486.66667)" />
      <path
         id="path12"
         d="m 884.348,2348.29 -118.399,174.54 35.297,23.91 118.399,-174.55 -35.297,-23.9"
         style="fill:#ffffff;fill-opacity:1;fill-rule:nonzero;stroke:none"
         transform="matrix(0.13333333,0,0,-0.13333333,0,486.66667)" />
      <path
         id="path13"
         d="m 1016.48,2430.08 -82.292,194.18 133.152,56.56 13.83,-32.96 -93.885,-39.77 19.535,-45.98 81.07,34.38 13.93,-32.86 -81.07,-34.38 34.99,-82.49 -39.26,-16.68 v 0"
         style="fill:#ffffff;fill-opacity:1;fill-rule:nonzero;stroke:none"
         transform="matrix(0.13333333,0,0,-0.13333333,0,486.66667)" />
      <path
         id="path14"
         d="m 1128.06,2701.17 41.61,9.26 24.92,-111.49 c 3.97,-17.7 7.02,-29.09 9.26,-34.08 3.66,-8.03 9.35,-13.83 17.19,-17.39 7.83,-3.66 17.59,-4.17 29.19,-1.53 11.8,2.65 20.14,7.02 25.02,13.23 4.99,6.1 7.23,12.81 6.92,20.14 -0.41,7.32 -2.44,19.12 -6,35.4 l -25.53,113.82 41.6,9.36 24.11,-108.13 c 5.59,-24.72 8.34,-42.42 8.44,-53.1 0,-10.78 -2.24,-20.24 -6.71,-28.68 -4.38,-8.34 -11.29,-15.77 -20.45,-22.18 -9.15,-6.41 -21.87,-11.49 -38.14,-15.05 -19.74,-4.48 -35.1,-5.5 -46.29,-3.26 -11.18,2.24 -20.54,6.41 -28.07,12.31 -7.53,5.9 -13.02,12.61 -16.68,20.24 -5.39,11.19 -10.68,28.28 -15.77,51.27 l -24.61,109.86 h -0.01"
         style="fill:#ffffff;fill-opacity:1;fill-rule:nonzero;stroke:none"
         transform="matrix(0.13333333,0,0,-0.13333333,0,486.66667)" />
      <path
         id="path15"
         d="m 1421.72,2537.3 -7.12,175.15 -62.56,-2.54 -1.42,35.6 167.53,6.92 1.43,-35.7 -62.46,-2.55 7.22,-175.15 -42.62,-1.73 v 0"
         style="fill:#ffffff;fill-opacity:1;fill-rule:nonzero;stroke:none"
         transform="matrix(0.13333333,0,0,-0.13333333,0,486.66667)" />
      <path
         id="path16"
         d="m 1545.79,2540.25 27.26,209.13 155.13,-20.24 -4.58,-35.3 -112.91,14.64 -6,-46.38 104.97,-13.63 -4.57,-35.3 -104.98,13.74 -7.42,-56.97 116.87,-15.25 -4.68,-35.2 -159.09,20.75 v 0.01"
         style="fill:#ffffff;fill-opacity:1;fill-rule:nonzero;stroke:none"
         transform="matrix(0.13333333,0,0,-0.13333333,0,486.66667)" />
      <path
         id="path17"
         d="m 1797.34,2713.97 80.16,-26.34 c 15.76,-5.19 27.46,-9.77 34.79,-13.63 7.32,-3.87 13.42,-8.95 18.2,-15.16 4.78,-6.2 8.04,-13.53 9.87,-21.77 1.83,-8.34 1.22,-16.88 -1.53,-25.53 -3.15,-9.36 -8.54,-17.19 -16.17,-23.29 -7.63,-6.21 -16.38,-9.87 -26.34,-10.89 11.08,-7.62 18.41,-16.78 22.17,-27.46 3.76,-10.68 3.76,-21.87 -0.11,-33.47 -2.95,-9.05 -8.03,-17.29 -15.05,-24.41 -7.12,-7.22 -15.16,-12.21 -24.21,-14.95 -8.95,-2.75 -19.02,-2.95 -30.21,-0.61 -7.02,1.52 -23.4,6.41 -49.23,14.65 l -68.26,22.48 65.92,200.38 z m 3.36,-126.33 -17.7,-53.61 37.43,-12.31 c 14.65,-4.78 24.01,-7.42 28.18,-7.93 6.41,-0.81 12.1,0.2 17.39,3.15 5.09,3.05 8.85,8.04 11.19,15.16 2.04,6.1 2.24,11.59 0.71,16.78 -1.52,5.19 -4.78,9.56 -9.66,13.33 -4.88,3.76 -16.48,8.64 -34.89,14.64 l -32.65,10.79 z m 26.14,79.64 -15.26,-46.28 26.55,-8.75 c 15.77,-5.18 25.63,-8.13 29.6,-8.95 7.22,-1.52 13.43,-0.91 18.72,1.73 5.29,2.75 8.95,7.22 11.09,13.73 2.03,6.21 2.03,11.8 -0.21,16.79 -2.13,4.98 -6.41,9.05 -12.92,12.1 -3.86,1.73 -15.25,5.7 -34.28,12.01 l -23.29,7.63 v -0.01"
         style="fill:#ffffff;fill-opacity:1;fill-rule:nonzero;stroke:none"
         transform="matrix(0.13333333,0,0,-0.13333333,0,486.66667)" />
      <path
         id="path18"
         d="m 1967.7,2542.48 c 10.68,18.62 22.47,32.66 35.29,42.12 9.46,6.91 19.94,12 31.43,15.36 11.4,3.25 22.48,4.17 33.06,2.84 14.14,-1.73 28.69,-6.81 43.64,-15.36 26.95,-15.46 43.64,-36.21 50.25,-62.25 6.61,-25.94 1.32,-53.91 -15.77,-83.61 -16.88,-29.6 -38.14,-48.12 -63.78,-55.54 -25.63,-7.53 -51.87,-3.46 -78.83,11.9 -27.16,15.56 -44.04,36.31 -50.55,62.15 -6.51,25.84 -1.43,53.3 15.26,82.39 z m 38.75,-20.54 c -11.9,-20.75 -16.07,-39.27 -12.61,-55.44 3.35,-16.17 12.51,-28.48 27.16,-36.92 14.75,-8.45 29.9,-10.07 45.46,-4.89 15.47,5.19 29.3,18.41 41.51,39.67 12,20.96 16.37,39.17 13.12,54.83 -3.26,15.56 -12.51,27.77 -27.77,36.41 -15.26,8.75 -30.52,10.58 -45.77,5.5 -15.26,-5.09 -28.99,-18.21 -41.1,-39.16 v 0"
         style="fill:#ffffff;fill-opacity:1;fill-rule:nonzero;stroke:none"
         transform="matrix(0.13333333,0,0,-0.13333333,0,486.66667)" />
      <path
         id="path19"
         d="m 2112,2333.03 136,158.99 32.34,-27.66 -112.8,-132.04 80.46,-68.76 -23.1,-27.06 -112.9,96.53"
         style="fill:#ffffff;fill-opacity:1;fill-rule:nonzero;stroke:none"
         transform="matrix(0.13333333,0,0,-0.13333333,0,486.66667)" />
      <path
         id="path20"
         d="m 2430.46,2101.18 13.12,-41.29 c -22.46,-8.14 -42.51,-9.36 -60.12,-3.77 -17.62,5.6 -32.96,17.6 -46.02,36.11 -16.16,22.89 -21.63,47.2 -16.39,72.94 5.23,25.83 21.4,48.21 48.52,67.33 28.68,20.35 56.17,28.59 82.49,25.03 26.33,-3.67 48.02,-17.5 65.06,-41.61 14.88,-21.05 20.75,-42.62 17.58,-64.59 -1.84,-13.02 -8.26,-26.35 -19.28,-40.08 l -32.55,28.69 c 7.49,8.34 11.54,17.6 12.15,27.66 0.6,10.18 -2.36,19.84 -8.88,29.1 -9.02,12.71 -20.92,19.83 -35.7,21.36 -14.79,1.42 -32.45,-5.09 -52.98,-19.53 -21.78,-15.36 -34.53,-30.21 -38.24,-44.66 -3.71,-14.34 -1.14,-27.77 7.71,-40.28 6.53,-9.25 15.08,-15.15 25.66,-17.7 10.58,-2.44 23.2,-0.71 37.87,5.29 v 0"
         style="fill:#ffffff;fill-opacity:1;fill-rule:nonzero;stroke:none"
         transform="matrix(0.13333333,0,0,-0.13333333,0,486.66667)" />
      <path
         id="path21"
         d="m 2403.54,1996.4 189.74,88.19 17.94,-38.66 -157.5,-73.13 44.64,-96.03 -32.24,-15.05 -62.57,134.68 h -0.01"
         style="fill:#ffffff;fill-opacity:1;fill-rule:nonzero;stroke:none"
         transform="matrix(0.13333333,0,0,-0.13333333,0,486.66667)" />
      <path
         id="path22"
         d="m 2677.9,1894.96 10.71,-41.2 -110.57,-28.68 c -17.56,-4.58 -28.8,-8.04 -33.73,-10.48 -7.89,-3.87 -13.52,-9.87 -16.84,-17.8 -3.34,-7.93 -3.51,-17.7 -0.52,-29.19 3.04,-11.7 7.72,-19.94 14.04,-24.62 6.32,-4.68 13.13,-6.71 20.41,-6.1 7.27,0.61 18.99,2.95 35.14,7.22 l 112.95,29.29 10.7,-41.19 -107.23,-27.87 c -24.51,-6.41 -42.11,-9.77 -52.81,-10.18 -10.7,-0.4 -20.31,1.53 -28.83,5.7 -8.51,4.17 -16.14,10.68 -22.88,19.63 -6.73,9.06 -12.2,21.57 -16.39,37.74 -5.07,19.43 -6.67,34.89 -4.77,46.08 1.88,11.29 5.66,20.75 11.33,28.48 5.67,7.73 12.21,13.53 19.63,17.4 11,5.79 27.92,11.59 50.76,17.49 l 108.9,28.28 v 0"
         style="fill:#ffffff;fill-opacity:1;fill-rule:nonzero;stroke:none"
         transform="matrix(0.13333333,0,0,-0.13333333,0,486.66667)" />
      <path
         id="path23"
         d="m 2732.32,1656.59 5,-84.13 c 0.99,-16.68 1.04,-29.19 0.14,-37.43 -0.91,-8.34 -3.37,-15.77 -7.38,-22.48 -4.02,-6.71 -9.57,-12.51 -16.64,-17.19 -7.08,-4.78 -15.15,-7.43 -24.25,-7.93 -9.86,-0.61 -19.07,1.52 -27.62,6.3 -8.56,4.89 -15.15,11.7 -19.81,20.55 -2.97,-13.02 -8.77,-23.29 -17.34,-30.72 -8.6,-7.42 -18.98,-11.49 -31.14,-12.2 -9.57,-0.61 -19.02,1.11 -28.33,4.98 -9.31,3.97 -16.9,9.56 -22.77,16.99 -5.88,7.32 -9.76,16.68 -11.68,27.87 -1.19,7.12 -2.68,24.11 -4.47,51.16 l -4.27,71.72 210.56,12.51 z m -116.26,-49.54 -56.3,-3.36 2.34,-39.36 c 0.91,-15.36 1.91,-25.03 3.02,-29.1 1.53,-6.2 4.64,-11.18 9.32,-14.95 4.69,-3.66 10.77,-5.39 18.24,-4.88 6.32,0.41 11.58,2.24 15.81,5.59 4.23,3.26 7.17,7.94 8.83,13.84 1.67,5.9 1.94,18.51 0.78,37.84 l -2.04,34.38 z m 83.74,4.88 -48.68,-2.85 1.64,-27.87 c 0.99,-16.58 1.83,-26.85 2.56,-30.82 1.3,-7.22 4.15,-12.82 8.55,-16.68 4.42,-3.97 10.03,-5.7 16.83,-5.29 6.51,0.41 11.68,2.44 15.55,6.31 3.85,3.86 6,9.35 6.45,16.47 0.21,4.28 -0.27,16.38 -1.45,36.32 l -1.45,24.41 v 0"
         style="fill:#ffffff;fill-opacity:1;fill-rule:nonzero;stroke:none"
         transform="matrix(0.13333333,0,0,-0.13333333,0,486.66667)" />
      <path
         id="path24"
         d="m 2529.92,1440.69 209.28,-26.55 -19.64,-155.13 -35.4,4.48 14.29,112.91 -46.4,5.9 -13.28,-105.08 -35.26,4.47 13.28,104.98 -56.95,7.22 -14.79,-116.88 -35.25,4.48 20.13,159.19 -0.01,0.01"
         style="fill:#ffffff;fill-opacity:1;fill-rule:nonzero;stroke:none"
         transform="matrix(0.13333333,0,0,-0.13333333,0,486.66667)" />
      <path
         id="path25"
         d="m 519.578,818.359 11.188,-41.91 c -22.786,-7.019 -42.926,-7.32 -60.215,-1.008 -17.395,6.399 -32.145,19.118 -44.352,38.239 -15.054,23.601 -19.426,48.109 -13.019,73.652 6.41,25.527 23.597,47.188 51.574,65.098 29.598,18.922 57.469,25.941 83.609,21.152 26.043,-4.883 47.098,-19.73 63.067,-44.551 13.836,-21.769 18.718,-43.531 14.547,-65.301 -2.442,-13.019 -9.461,-26.039 -21.055,-39.16 l -31.231,30.102 c 7.832,7.937 12.309,16.988 13.43,27.058 1.117,10.071 -1.426,19.942 -7.527,29.5 -8.446,13.122 -20.039,20.852 -34.688,22.989 -14.75,2.14 -32.652,-3.559 -53.812,-17.09 -22.477,-14.34 -35.906,-28.68 -40.281,-42.82 -4.372,-14.137 -2.442,-27.77 5.8,-40.688 6.102,-9.562 14.446,-15.769 24.821,-18.82 10.476,-2.949 23.191,-1.731 38.144,3.558 v 0"
         style="fill:#ffffff;fill-opacity:1;fill-rule:nonzero;stroke:none"
         transform="matrix(0.13333333,0,0,-0.13333333,0,486.66667)" />
      <path
         id="path26"
         d="m 645.41,555.289 -31.84,33.77 22.176,46.281 -57.879,61.238 -46.793,-20.238 -31.023,32.851 209.738,85.141 30.922,-32.754 -95.309,-206.289 z m 6.817,114.332 36.921,74.969 -76.492,-33.059 39.567,-41.91 h 0.004"
         style="fill:#ffffff;fill-opacity:1;fill-rule:nonzero;stroke:none"
         transform="matrix(0.13333333,0,0,-0.13333333,0,486.66667)" />
      <path
         id="path27"
         d="m 682.73,523.621 120.743,173.027 52.285,-36.519 -50.961,-139.859 113.414,96.32 52.387,-36.61 -120.743,-172.921 -32.449,22.582 95.008,136.199 -129.387,-112.199 -33.566,23.5 60.828,160.007 -95.109,-136.199 -32.446,22.68 -0.004,-0.008"
         style="fill:#ffffff;fill-opacity:1;fill-rule:nonzero;stroke:none"
         transform="matrix(0.13333333,0,0,-0.13333333,0,486.66667)" />
      <path
         id="path28"
         d="m 910.688,375.59 84.527,193.371 62.665,-27.359 c 23.7,-10.383 38.75,-18.114 45.16,-23.204 9.76,-7.828 16.27,-18.097 19.53,-31.117 3.15,-13.019 1.42,-27.16 -5.29,-42.519 -5.19,-11.903 -11.7,-20.961 -19.53,-27.16 -7.83,-6.211 -16.07,-10.172 -24.72,-11.801 -8.65,-1.731 -16.78,-1.832 -24.31,-0.309 -10.07,2.137 -24.01,7.117 -41.6,14.848 l -25.534,11.191 -31.84,-72.929 -39.058,16.988 z m 109.242,143.621 -23.903,-54.93 21.363,-9.25 c 15.36,-6.82 26.04,-10.281 32.14,-10.48 6,-0.301 11.5,1.121 16.38,4.168 4.78,2.953 8.44,7.332 10.98,13.121 3.06,7.019 3.46,13.629 1.33,20.039 -2.14,6.41 -6.11,11.5 -11.9,15.461 -4.28,2.949 -13.43,7.43 -27.47,13.531 l -18.92,8.34 v 0"
         style="fill:#ffffff;fill-opacity:1;fill-rule:nonzero;stroke:none"
         transform="matrix(0.13333333,0,0,-0.13333333,0,486.66667)" />
      <path
         id="path29"
         d="m 1107.82,297.02 58.29,202.73 40.89,-11.699 -58.19,-202.731 -40.99,11.7"
         style="fill:#ffffff;fill-opacity:1;fill-rule:nonzero;stroke:none"
         transform="matrix(0.13333333,0,0,-0.13333333,0,486.66667)" />
      <path
         id="path30"
         d="m 1202.22,268.582 33.97,208.219 40.89,-6.621 62.56,-152.981 22.68,139.051 38.96,-6.301 -33.87,-208.219 -42.21,6.821 -61.75,149.418 -22.17,-135.688 -39.06,6.309 v -0.008"
         style="fill:#ffffff;fill-opacity:1;fill-rule:nonzero;stroke:none"
         transform="matrix(0.13333333,0,0,-0.13333333,0,486.66667)" />
      <path
         id="path31"
         d="m 1627.47,242.309 -46.39,-1.321 -19.73,47.403 -84.33,-2.442 -16.07,-48.418 -45.16,-1.222 76.19,213.203 44.96,1.218 90.53,-208.429 z m -80.77,81.171 -31.33,77.411 -26.24,-79.039 z"
         style="fill:#ffffff;fill-opacity:1;fill-rule:nonzero;stroke:none"
         transform="matrix(0.13333333,0,0,-0.13333333,0,486.66667)" />
      <path
         id="path32"
         d="m 1648.6,315.27 39.67,12.609 c 5.39,-13.02 12.51,-21.969 21.36,-26.75 8.75,-4.777 19.53,-5.801 32.14,-3.149 13.43,2.95 22.99,7.93 28.59,15.051 5.59,7.117 7.52,14.551 5.9,22.071 -1.02,4.886 -3.36,8.75 -7.02,11.597 -3.56,2.75 -9.16,4.68 -16.89,5.699 -5.19,0.614 -16.99,1.223 -35.19,1.832 -23.6,0.809 -40.69,4.168 -51.47,10.372 -15.06,8.648 -24.31,21.058 -27.87,37.437 -2.24,10.473 -1.33,20.953 2.64,31.32 3.97,10.481 11.09,19.231 21.26,26.45 10.17,7.222 23.19,12.511 39.06,15.871 25.94,5.601 46.59,4.07 62.15,-4.469 15.46,-8.551 25.63,-22.18 30.31,-41 l -41.3,-10.781 c -3.96,10.172 -9.46,16.992 -16.27,20.449 -6.92,3.351 -16.18,3.762 -27.87,1.223 -12.11,-2.551 -21.06,-7.122 -26.86,-13.532 -3.76,-4.172 -5.08,-8.851 -3.86,-14.238 1.02,-4.883 3.97,-8.652 8.85,-11.191 6.2,-3.262 19.93,-5.09 41.19,-5.602 21.37,-0.398 37.33,-2.129 48.22,-5.18 10.78,-3.05 19.83,-8.339 27.26,-16.078 7.32,-7.621 12.51,-18 15.26,-31.121 2.54,-11.801 1.63,-23.5 -2.75,-35.301 -4.37,-11.699 -12,-21.359 -22.88,-28.988 -10.99,-7.531 -25.43,-13.32 -43.34,-17.09 -26.04,-5.59 -47.4,-3.859 -63.88,5.188 -16.58,9.051 -28.68,24.82 -36.41,47.301 v 0"
         style="fill:#ffffff;fill-opacity:1;fill-rule:nonzero;stroke:none"
         transform="matrix(0.13333333,0,0,-0.13333333,0,486.66667)" />
      <path
         id="path33"
         d="m 2211.46,468.871 -33.67,-22.371 -84.43,126.84 c -4.58,-19.738 -13.43,-37.84 -26.45,-54.418 l -20.34,30.508 c 6.82,8.75 12.82,20.55 17.8,35.402 4.88,14.848 5.8,28.988 2.44,42.219 l 27.37,18.199 117.28,-176.379 v 0"
         style="fill:#ffffff;fill-opacity:1;fill-rule:nonzero;stroke:none"
         transform="matrix(0.13333333,0,0,-0.13333333,0,486.66667)" />
      <path
         id="path34"
         d="m 2243.77,552.262 26.25,29.398 c 6,-5.289 11.8,-8.039 17.38,-8.238 5.56,-0.113 10.82,2.027 15.74,6.508 6.21,5.492 8.93,13.121 8.14,22.781 -0.77,9.559 -8.64,23.91 -23.58,43.027 0.32,-15.558 -5.17,-28.476 -16.57,-38.648 -12.3,-11.09 -27.26,-15.969 -44.75,-14.449 -17.5,1.531 -33.16,9.871 -46.9,25.129 -14.24,15.968 -21.05,32.949 -20.34,51.261 0.71,18.207 8.34,33.879 22.99,47 15.97,14.34 34.48,19.93 55.74,16.778 21.26,-3.149 44.55,-18.821 69.91,-46.989 25.79,-28.691 39.05,-54.218 39.82,-76.39 0.79,-22.282 -7.34,-41.098 -24.41,-56.36 -12.26,-11.082 -25.13,-16.679 -38.55,-16.98 -13.41,-0.309 -27.04,5.082 -40.87,16.172 z m 9.06,126.937 c -8.75,9.672 -17.7,15.16 -26.96,16.582 -9.26,1.328 -16.89,-0.711 -22.68,-5.902 -5.6,-4.981 -8.24,-11.391 -7.94,-19.02 0.21,-7.73 4.89,-16.578 13.84,-26.55 9.05,-10.168 17.8,-15.758 26.04,-16.977 8.24,-1.121 15.36,1.008 21.36,6.406 5.8,5.184 8.64,11.793 8.44,19.934 -0.11,8.137 -4.17,16.68 -12.1,25.527 v 0"
         style="fill:#ffffff;fill-opacity:1;fill-rule:nonzero;stroke:none"
         transform="matrix(0.13333333,0,0,-0.13333333,0,486.66667)" />
      <path
         id="path35"
         d="m 2475.78,719.66 -25.82,-31.129 -117.23,97.348 c 1.18,-20.238 -2.09,-40.18 -9.8,-59.809 l -28.23,23.489 c 4.09,10.281 6.38,23.3 6.86,38.961 0.49,15.671 -2.74,29.402 -9.69,41.199 l 20.96,25.222 162.95,-135.281 v 0"
         style="fill:#ffffff;fill-opacity:1;fill-rule:nonzero;stroke:none"
         transform="matrix(0.13333333,0,0,-0.13333333,0,486.66667)" />
      <path
         id="path36"
         d="m 2568.85,855.621 -21.52,-34.18 -129.02,80.969 c 3.83,-19.828 3.21,-39.969 -1.85,-60.519 l -31.07,19.531 c 2.7,10.777 3.25,24.008 1.68,39.566 -1.6,15.66 -6.59,28.793 -15.03,39.571 l 17.46,27.773 179.35,-112.711 v 0"
         style="fill:#ffffff;fill-opacity:1;fill-rule:nonzero;stroke:none"
         transform="matrix(0.13333333,0,0,-0.13333333,0,486.66667)" />
      <path
         id="path37"
         d="m 841.828,1491.03 c 0,267.62 161.422,498.01 392.132,599.43 v 128.98 C 935.813,2111.62 722.105,1825.79 722.105,1491.02 c 0,-334.85 213.711,-620.692 511.855,-728.411 v 788.431 h -52.08 v 0.91 H 996.551 V 1432.23 H 1114.24 V 960.148 C 949.352,1079.06 841.828,1272.63 841.828,1491.02 v 0.01"
         style="fill:#ffffff;fill-opacity:1;fill-rule:nonzero;stroke:none"
         transform="matrix(0.13333333,0,0,-0.13333333,0,486.66667)" />
      <path
         id="path38"
         d="m 1496.48,2145.58 c 73.96,0 144.96,-12.41 211.17,-35.2 v 125.42 c -67.13,19.02 -137.93,29.5 -211.17,29.5 -74.35,0 -146.17,-10.68 -214.22,-30.31 V 747.031 c 38.76,-11.179 78.73,-19.531 119.72,-24.511 v 709.7 h 305.68 v 119.72 h -305.62 v 586.24 c 30.93,4.57 62.36,7.32 94.5,7.32 l -0.06,0.08"
         style="fill:#ffffff;fill-opacity:1;fill-rule:nonzero;stroke:none"
         transform="matrix(0.13333333,0,0,-0.13333333,0,486.66667)" />
      <path
         id="path39"
         d="M 2097.4,1231.87 C 2049.79,1122.02 1972.99,1027.52 1876.66,958.551 V 2023.26 c 92.87,-66.43 167.74,-156.54 215.64,-261.42 l 107.72,51.17 c -86.76,188.49 -246.36,336.59 -443.09,407.08 V 761.742 c 202.72,72.727 366.4,227.656 451.02,424.378 l -110.57,45.77 0.02,-0.02"
         style="fill:#ffffff;fill-opacity:1;fill-rule:nonzero;stroke:none"
         transform="matrix(0.13333333,0,0,-0.13333333,0,486.66667)" />
      <path
         id="path40"
         d="m 1490.9,552.5 c -517.748,0 -939.064,421.32 -939.064,939.07 0,517.86 421.316,939.07 939.064,939.07 517.76,0 939.03,-421.22 939.03,-939.07 0,-517.75 -421.27,-939.07 -939.03,-939.07 z m 0,1813.9 c -482.34,0 -874.888,-392.43 -874.888,-874.89 0,-482.35 392.548,-874.889 874.888,-874.889 482.35,0 874.85,392.539 874.85,874.889 0,482.46 -392.48,874.89 -874.85,874.89"
         style="fill:#ffffff;fill-opacity:1;fill-rule:nonzero;stroke:none"
         transform="matrix(0.13333333,0,0,-0.13333333,0,486.66667)" />
      <path
         id="path41"
         d="m 1944.55,399.219 c 24.31,0 44.15,19.73 44.15,44.152 0,24.309 -19.84,44.141 -44.15,44.141 -24.31,0 -44.14,-19.832 -44.14,-44.141 0,-24.312 19.83,-44.152 44.14,-44.152"
         style="fill:#ffffff;fill-opacity:1;fill-rule:nonzero;stroke:none"
         transform="matrix(0.13333333,0,0,-0.13333333,0,486.66667)" />
      <path
         id="path42"
         d="m 2532.51,1035.54 c 24.34,0 44.11,19.73 44.11,44.14 0,24.41 -19.77,44.15 -44.11,44.15 -24.31,0 -44.11,-19.74 -44.11,-44.15 0,-24.41 19.8,-44.14 44.11,-44.14"
         style="fill:#ffffff;fill-opacity:1;fill-rule:nonzero;stroke:none"
         transform="matrix(0.13333333,0,0,-0.13333333,0,486.66667)" />
      <path
         id="path43"
         d="m 422.746,1053.48 c 24.313,0 44.149,19.74 44.149,44.05 0,24.41 -19.836,44.24 -44.149,44.24 -24.308,0 -44.148,-19.83 -44.148,-44.24 0,-24.31 19.836,-44.05 44.148,-44.05"
         style="fill:#ffffff;fill-opacity:1;fill-rule:nonzero;stroke:none"
         transform="matrix(0.13333333,0,0,-0.13333333,0,486.66667)" />
    </g>
  </g>
</svg>
