<svg xmlns="http://www.w3.org/2000/svg" width="301" height="169" viewBox="-0.2773438 -0.4394531 301 169">
<title>Jabaquara Atlético Clube</title>
<path d="M206.31,58.79v-0.0097656c0.077148,1.9531,0.088867,3.9302-0.0053711,5.8799,0.05-1.956,0.04-3.915,0.01-5.87z" fill="#FFF"/>
<g fill="#030302">
<path d="M144.49,0h7.6646c0.92041,0.19238,1.8706,0.17822,2.8003,0.31738,15.324,1.6299,29.868,9.3496,39.889,21.044,7.1777,8.2676,12.062,18.486,14.03,29.253,16.018-8.8018,36.009-9.835,52.872-2.8081,8.0195,3.2954,15.331,8.3013,21.299,14.59,10.07,10.497,16.17,24.644,16.96,39.154v6.8525c-0.72168,12.981-5.6318,25.693-13.913,35.726-5.2173,6.394-11.741,11.718-19.045,15.559-15.883,8.4854-35.537,9.4126-52.165,2.5166-7.8882-3.2271-15.097-8.105-21.015-14.237-8.4473-8.6934-14.242-19.921-16.405-31.851-7.21,3.9062-15.205,6.3525-23.369,7.1338-10.78,1.063-21.82-0.76562-31.679-5.2563-2.7065,13.789-10.348,26.523-21.185,35.458-6.4365,5.3477-13.977,9.3687-22.008,11.723-9.8906,2.9014-20.51,3.2715-30.581,1.0806-8.2144-1.7729-16.039-5.2822-22.861-10.18-13.506-9.6284-22.852-24.894-25.136-41.336-1.4141-9.7524-0.47412-19.839,2.7617-29.148,5.125-14.888,16.181-27.608,30.218-34.745,16.506-8.6035,36.943-9.042,53.834-1.2422,1.5679-7.9487,4.7661-15.558,9.272-22.287,8.6592-12.971,22.386-22.461,37.619-25.856,3.34-0.77671,6.74-1.1771,10.15-1.452zm-1.64,3.6504c-8.8022,0.76416-17.416,3.5869-24.964,8.1768-14.106,8.4717-24.344,23.166-27.177,39.397,13.445,7.0688,24.071,19.284,29.212,33.579,3.4277,9.415,4.4658,19.672,3.0947,29.593,11.727,5.6821,25.409,7.1011,38.094,4.1963,15.635-3.5005,29.537-13.842,37.487-27.739,4.604-7.9512,7.2729-17.014,7.7056-26.193,0.094238-1.9497,0.08252-3.9268,0.0053711-5.8799v0.0097656c-0.62793-13.476-6.1616-26.644-15.333-36.535-5.729-6.2388-12.834-11.209-20.666-14.439-8.63-3.594-18.15-5.013-27.46-4.1736zm66.56,50.677c1.083,8.833,0.22607,17.904-2.5088,26.375-4.3965,13.718-13.767,25.777-25.997,33.392-0.18701,0.072266-0.22314,0.25439-0.17139,0.43213,1.6021,9.875,5.8491,19.298,12.144,27.07,5.1377,6.3838,11.644,11.661,18.945,15.379,14.104,7.2681,31.212,8.3179,46.124,2.9272,15.427-5.4629,28.25-17.758,34.348-32.945,3.313-8.1099,4.75-16.983,4.1587-25.72-0.82764-14.313-7.272-28.189-17.608-38.116-9.8687-9.6528-23.285-15.595-37.075-16.341-11.2-0.698-22.63,1.905-32.35,7.544zm-150.8-6.716c-8.7412,0.49951-17.38,2.936-25.03,7.2109-12.755,7.018-22.696,18.991-27.185,32.847-3.3506,10.125-3.7964,21.173-1.3608,31.55,1.9678,8.4468,5.8862,16.422,11.321,23.177,10.091,12.641,25.634,20.784,41.805,21.657,9.5264,0.63672,19.205-1.1616,27.887-5.1362,13.736-6.2417,24.838-18.025,30.205-32.13,4.1123-10.619,4.9468-22.451,2.5-33.562-3.47-16.031-14.11-30.29-28.438-38.249-9.58-5.423-20.724-7.955-31.707-7.368z"/>
<path d="M126.59,51.18c13.82-10.161,27.626-20.333,41.441-30.503,0.35498,0.46094,0.69678,0.93066,1.0444,1.3979-0.99707,0.80078-2.1162,1.4824-3.0615,2.3232-0.09668,23.159-0.050293,46.322-0.081055,69.482,0.65576,0.48828,1.3154,0.9707,1.9741,1.4551-0.28809,0.43652-0.61475,0.84473-0.91162,1.2744-5.8838-4.1973-11.661-8.5605-17.506-12.819,0.30469-0.43115,0.62354-0.85205,0.92676-1.2847,0.49219,0.2749,0.89746,0.67676,1.3936,0.94775,0.030762-6.5361-0.0029297-13.072,0.016602-19.608-2.5435-0.033691-5.0884-0.0053711-7.6318-0.01416,0.003418,7.0474,0.0097656,14.096,0.017578,21.145,0.6626-0.26367,1.1504-0.85107,1.8374-1.0576,0.26367,0.43359,0.55908,0.84814,0.82275,1.2832-5.8877,3.8906-11.76,7.8052-17.666,11.668-0.68164,0.60205-0.91309-0.68018-1.312-1.0562,0.70654-0.5498,1.5649-0.93213,2.2056-1.5439,0.017578-14.487,0.024414-28.977-0.0039063-43.464-0.85352,0.57373-1.666,1.2051-2.4932,1.8145-0.36-0.47-0.77-0.908-1.02-1.44zm27.31-17.962c-0.057129,16.975,0.012695,33.952-0.018066,50.928,3.2998,2.479,6.5938,4.9775,9.9458,7.3843,0.076172-16.607,0.0063477-33.218,0.05957-49.826,0.12793-4.3857,0.016602-8.7812,0.056641-13.17-0.04248-0.85742,0.11084-1.7378-0.12744-2.5747-3.33,2.389-6.59,4.877-9.92,7.259zm-9.52,7.035c-0.35254,0.18164-0.23486,0.61572-0.25195,0.93604,0.060547,6.4907,0.047852,12.981,0.051758,19.474,2.5425,0.012695,5.0859,0.0014648,7.6299,0.0048828,0.0024414-8.6133,0.017578-17.228-0.0078125-25.84-2.5,1.763-4.93,3.63-7.42,5.425zm-2.91,2.126c-3.0693,2.3101-6.1978,4.5386-9.2671,6.8481-0.17676,1.0552-0.062988,2.1309-0.095215,3.1948,0.032227,3.5728-0.074707,7.1504,0.077637,10.717,0.0024414,9.729-0.011719,19.458,0.0063477,29.186,3.3672-2.0986,6.6509-4.3579,9.9561-6.562-0.0063477-13.998-0.020508-27.994-0.018066-41.992-0.0048828-0.56299,0.04541-1.1338-0.084961-1.688-0.21,0.066-0.41,0.16-0.58,0.296z"/>
<path d="M74.523,66.074c0.22461-0.16748,0.46631-0.34082,0.76318-0.32275,0.27881,0.43506,0.64648,0.82373,0.80811,1.3262-0.88184,0.5498-1.7446,1.1284-2.6069,1.708-0.37061,0.21826-0.23242,0.71191-0.25977,1.0669,0.011719,15.752,0,31.506-0.0073242,47.258-0.019531,5.1235-0.47266,10.331-2.2119,15.188-0.76172,2.0054-1.7622,3.9536-3.189,5.5728-1.9189,2.2417-4.583,3.7485-7.3818,4.6045-3.6528,1.0884-7.5332,1.3633-11.316,0.99658-3.8193-0.47363-7.5132-2.2632-10.045-5.1919-2.5903-3.2344-4.0156-7.2588-4.6421-11.317-0.57861,0.3418-1.1372,0.71631-1.6929,1.0933-0.28662-0.54199-0.96582-1.0791-0.94629-1.6665,6.9028-4.5605,13.87-9.0371,20.8-13.563,0.26953-0.19629,0.54492-0.39746,0.87549-0.48145,0.28125,0.55371,0.79785,0.99951,0.92334,1.623-0.94287,0.56299-1.8379,1.2031-2.7764,1.7715-0.18213,0.084961-0.2334,0.27734-0.21289,0.46484-0.010254,8.2637,0.0039063,16.528-0.0068359,24.792,0.013184,0.19092-0.038574,0.43799,0.16699,0.55273,2.5254,0.10986,5.042-0.2749,7.499-0.8252,0.27148-0.088867,0.74219-0.10059,0.69727-0.49854-0.02832-20.75,0.052734-41.506-0.035156-62.254-1.0273,0.31396-1.7314,1.3623-2.7964,1.5376-0.2583-0.42578-0.53564-0.83789-0.78125-1.269,6.085-4.087,12.216-8.138,18.375-12.141zm-3.497,4.795l0.01416,0.046875c-2.9956,1.9365-5.9561,3.9287-8.9492,5.8696-0.0092773,20.924-0.0014648,41.847-0.0039063,62.772,2.8018-1.2744,5.0215-3.6367,6.2661-6.4375,2.208-4.8384,2.6328-10.25,2.7554-15.498,0.038574-15.569,0.0078125-31.14,0.046387-46.708-0.031-0.009-0.095-0.031-0.128-0.043zm-34.509,54.991c0.15771,2.4766,0.85107,4.8989,1.8506,7.1621,0.92432,2.0283,2.1226,4.0117,3.9111,5.3936,1.9287,1.5972,4.333,2.5127,6.7876,2.9087,0.036133-7.8569,0.0053711-15.715,0.015137-23.572-4.202,2.69-8.376,5.41-12.565,8.11z"/>
<path d="M227.56,71.141c2.9551-1.9795,6.5229-3.0034,10.078-2.9287,4.2544-0.072266,8.6421,1.3662,11.689,4.4136,3.769,3.8994,7.4565,8.3125,8.5928,13.761,0.40186,1.6426-0.13574,3.3184-0.70996,4.8525-1.2397,3.0869-2.7539,6.0698-4.5669,8.8613-0.39404,0.55762-0.61963,1.3452-1.3237,1.5894-1.5635,0.0063477-3.1323,0.038574-4.6934-0.020508-0.076172-9.5728,0.0078125-19.151-0.041016-28.725-2.3447-1.999-5.5703-2.5425-8.5605-2.7427-2.5698,0.024902-5.231,0.32568-7.541,1.5303-0.19482,0.068359-0.28027,0.24512-0.24121,0.44434-0.0024414,23.458-0.0014648,46.917,0,70.376-0.0024414,0.16016,0.032227,0.37695,0.21045,0.44385,2.2583,1.1235,4.8267,1.3765,7.3145,1.396,3.0693-0.17969,6.3398-0.65869,8.8394-2.5952-0.026856-8.145,0.0068359-16.29-0.016602-24.433-0.047852-0.39795,0.31396-0.81104,0.72949-0.72461,1.2524,0.036133,2.5142-0.040039,3.7627,0.062012,3.4424,1.1904,5.8926,4.5542,6.2466,8.1489,0.42627,3.4458-0.53711,6.9336-2.0967,9.9897-1.7603,3.5264-4.3423,6.7144-7.6997,8.8267-5.4229,3.3042-12.602,3.7031-18.283,0.81592-3.9546-2.0425-6.9268-5.5752-9.0405-9.4268-4.2212-7.6221-5.7031-16.436-5.9951-25.045-0.22705-8.9736,0.54492-18.171,4.021-26.538,2.03-4.787,4.95-9.408,9.33-12.341zm-4.17,7.052c-2.3125,3.3418-3.9224,7.1274-5.0303,11.024-1.8604,6.6226-2.3306,13.555-2.1719,20.406,0.2417,7.459,1.3467,15.033,4.478,21.87,1.769,3.7778,4.0967,7.5132,7.604,9.897,0.003418-22.726,0.0009766-45.453,0.0009766-68.18-1.95,1.297-3.53,3.089-4.88,4.983zm25.22-3.321c-0.068359,8.4199-0.0048828,16.842-0.032227,25.263,0.65869,0.0078125,1.3174,0.0063477,1.9771,0.0014648,1.6396-3.1416,3.4253-6.2212,4.7319-9.5225,0.49854-1.3027,1.0576-2.7402,0.60547-4.1372-1.1-4.553-4.13-8.292-7.29-11.609zm-0.02,43.488c0.0009766,7.3008-0.01709,14.601,0.010254,21.901,2.4185-2.0415,4.1704-4.7812,5.4536-7.6519,1.3716-3.1694,2.04-6.9751,0.50781-10.209-0.87305-1.9092-2.6782-3.1553-4.5205-4.0195-0.48-0.05-0.97-0.01-1.45-0.02z"/>
</g>
<g fill="#FFF500">
<path d="M142.85,3.6504c9.3096-0.83936,18.823,0.57959,27.459,4.165,7.8311,3.2305,14.937,8.2007,20.666,14.439,9.1714,9.8916,14.705,23.06,15.333,36.535,0.025391,1.9551,0.038574,3.9141-0.0053711,5.8701-0.43262,9.1787-3.1016,18.242-7.7056,26.193-7.9502,13.897-21.853,24.238-37.487,27.739-12.685,2.9048-26.367,1.4858-38.094-4.1963,1.3711-9.9204,0.33301-20.178-3.0947-29.593-5.1406-14.295-15.767-26.51-29.212-33.579,2.833-16.231,13.07-30.925,27.177-39.397,7.56-4.5837,16.17-7.4064,24.97-8.1706zm-16.26,47.53c0.25293,0.53174,0.6626,0.96973,1.0127,1.4409,0.82715-0.60938,1.6396-1.2407,2.4932-1.8145,0.02832,14.487,0.021484,28.977,0.0039063,43.464-0.64062,0.61182-1.499,0.99414-2.2056,1.5439,0.39893,0.37598,0.63037,1.6582,1.312,1.0562,5.9058-3.8633,11.778-7.7778,17.666-11.668-0.26367-0.43506-0.55908-0.84961-0.82275-1.2832-0.68701,0.20654-1.1748,0.79395-1.8374,1.0576-0.0078125-7.0488-0.01416-14.097-0.017578-21.145,2.5435,0.0087891,5.0884-0.019531,7.6318,0.01416-0.019531,6.5361,0.01416,13.072-0.016602,19.608-0.49609-0.271-0.90137-0.67285-1.3936-0.94775-0.30322,0.43262-0.62207,0.85352-0.92676,1.2847,5.8452,4.2583,11.622,8.6216,17.506,12.819,0.29688-0.42969,0.62354-0.83789,0.91162-1.2744-0.65869-0.48438-1.3184-0.9668-1.9741-1.4551,0.030762-23.16-0.015625-46.324,0.081055-69.482,0.94531-0.84082,2.0645-1.5225,3.0615-2.3232-0.34766-0.46729-0.68945-0.93701-1.0444-1.3979-13.81,10.169-27.61,20.342-41.43,30.502z"/>
<path d="M144.38,40.253c2.4844-1.7949,4.917-3.6621,7.4219-5.4258,0.025391,8.6123,0.010254,17.227,0.0078125,25.84-2.5439-0.003418-5.0874,0.0078125-7.6299-0.0048828-0.0039063-6.4922,0.0087891-12.983-0.051758-19.474,0.02-0.319-0.1-0.753,0.25-0.935z"/>
<path d="M62.091,76.786c2.9932-1.9409,5.9536-3.9331,8.9492-5.8696,0.12939,0.31885,0.058106,0.66895,0.076172,1.0029,0.040039,15.233-0.0024414,30.468-0.0078125,45.703-0.12256,5.2485-0.54736,10.66-2.7554,15.498-1.2446,2.8008-3.4644,5.1631-6.2661,6.4375,0.003-20.93-0.005-41.851,0.004-62.774z"/>
<path d="M223.39,78.193c1.356-1.894,2.9287-3.686,4.8809-4.9824,0,22.727,0.0024414,45.454-0.0009766,68.18-3.5073-2.3838-5.835-6.1191-7.604-9.897-3.1313-6.8369-4.2363-14.411-4.478-21.87-0.15869-6.8511,0.31152-13.783,2.1719-20.406,1.11-3.894,2.72-7.679,5.03-11.021z"/>
<path d="M248.61,74.872c3.1572,3.3169,6.189,7.0562,7.2822,11.605,0.45215,1.397-0.10693,2.8345-0.60547,4.1372-1.3066,3.3013-3.0923,6.3809-4.7319,9.5225-0.65967,0.0048828-1.3184,0.0063477-1.9771-0.0014648,0.04-8.426-0.03-16.848,0.04-25.268z"/>
<path d="M36.517,125.86c4.189-2.7012,8.3633-5.4258,12.564-8.1074-0.0097656,7.8569,0.020996,15.715-0.015137,23.572-2.4546-0.396-4.8589-1.3115-6.7876-2.9087-1.7886-1.3818-2.9868-3.3652-3.9111-5.3936-0.999-2.26-1.693-4.68-1.85-7.16z"/>
<path d="M248.59,118.36c0.48242,0.0078125,0.96826-0.02832,1.4512,0.020508,1.8423,0.86426,3.6475,2.1104,4.5205,4.0195,1.5322,3.2344,0.86377,7.04-0.50781,10.209-1.2832,2.8706-3.0352,5.6104-5.4536,7.6519-0.03-7.3-0.01-14.6-0.01-21.9z"/>
</g>
<g fill="#DA251C">
<path d="M153.9,33.218c3.3311-2.3823,6.5874-4.8701,9.9165-7.2578,0.23828,0.83691,0.084961,1.7173,0.12744,2.5747-0.040039,4.3887,0.071289,8.7842-0.056641,13.17-0.053223,16.607,0.016602,33.219-0.05957,49.826-3.3521-2.4067-6.646-4.9053-9.9458-7.3843,0.04-16.977-0.03-33.954,0.02-50.929z"/>
<path d="M141.47,42.379c0.16797-0.13672,0.3667-0.22998,0.57471-0.2959,0.13037,0.5542,0.080078,1.125,0.084961,1.688-0.0024414,13.998,0.011719,27.994,0.018066,41.992-3.3052,2.2041-6.5889,4.4634-9.9561,6.562-0.018066-9.728-0.0039063-19.457-0.0063477-29.186-0.15234-3.5664-0.04541-7.144-0.077637-10.717,0.032227-1.064-0.081543-2.1396,0.095215-3.1948,3.08-2.309,6.21-4.538,9.28-6.848z"/>
<path d="M209.41,54.327c9.7236-5.6387,21.152-8.2417,32.359-7.5469,13.79,0.74609,27.207,6.6885,37.075,16.341,10.336,9.9268,16.78,23.803,17.608,38.116,0.59131,8.7373-0.8457,17.61-4.1587,25.72-6.0981,15.187-18.921,27.482-34.348,32.945-14.912,5.3906-32.021,4.3408-46.124-2.9272-7.3018-3.7188-13.808-8.9956-18.945-15.379-6.2944-7.7715-10.542-17.195-12.144-27.07-0.051758-0.17773-0.015625-0.35986,0.17139-0.43213,12.23-7.6143,21.601-19.674,25.997-33.392,2.73-8.468,3.58-17.538,2.5-26.371zm18.15,16.814c-4.3813,2.9336-7.3032,7.5547-9.3262,12.332-3.4761,8.3667-4.248,17.564-4.021,26.538,0.29199,8.6099,1.7739,17.423,5.9951,25.045,2.1138,3.8516,5.0859,7.3843,9.0405,9.4268,5.6816,2.8872,12.86,2.4883,18.283-0.81592,3.3574-2.1123,5.9395-5.3003,7.6997-8.8267,1.5596-3.0562,2.5229-6.5439,2.0967-9.9897-0.354-3.5947-2.8042-6.9585-6.2466-8.1489-1.2485-0.10205-2.5103-0.025879-3.7627-0.062012-0.41553-0.086426-0.77734,0.32666-0.72949,0.72461,0.023438,8.1436-0.010254,16.288,0.016602,24.433-2.4995,1.9365-5.77,2.4155-8.8394,2.5952-2.4878-0.019531-5.0562-0.27246-7.3145-1.396-0.17822-0.066894-0.21289-0.28369-0.21045-0.44385-0.0014648-23.459-0.0024414-46.918,0-70.376-0.039062-0.19922,0.046387-0.37598,0.24121-0.44434,2.3101-1.2046,4.9712-1.5054,7.541-1.5303,2.9902,0.2002,6.2158,0.74365,8.5605,2.7427,0.048828,9.5742-0.035156,19.152,0.041016,28.725,1.561,0.059082,3.1299,0.026856,4.6934,0.020508,0.7041-0.24414,0.92969-1.0317,1.3237-1.5894,1.813-2.7915,3.3271-5.7744,4.5669-8.8613,0.57422-1.5342,1.1118-3.21,0.70996-4.8525-1.1362-5.4487-4.8237-9.8618-8.5928-13.761-3.0469-3.0474-7.4346-4.4858-11.689-4.4136-3.56-0.074-7.13,0.95-10.08,2.93z"/>
<path d="M58.605,47.611c10.983-0.5874,22.127,1.9443,31.708,7.3672,14.325,7.959,24.969,22.219,28.434,38.247,2.4468,11.11,1.6123,22.943-2.5,33.562-5.3662,14.105-16.469,25.888-30.205,32.13-8.6821,3.9746-18.361,5.7729-27.887,5.1362-16.171-0.87256-31.714-9.0161-41.805-21.657-5.4346-6.7544-9.353-14.73-11.321-23.177-2.4355-10.377-1.9897-21.425,1.3608-31.55,4.4893-13.855,14.43-25.829,27.186-32.847,7.646-4.276,16.285-6.712,25.026-7.212zm15.918,18.463c-6.1592,4.0029-12.29,8.0547-18.375,12.167,0.24561,0.43115,0.52295,0.84326,0.78125,1.269,1.0649-0.17529,1.769-1.2236,2.7964-1.5376,0.087891,20.748,0.0068359,41.504,0.035156,62.254,0.044922,0.39795-0.42578,0.40967-0.69727,0.49854-2.457,0.55029-4.9736,0.93506-7.499,0.8252-0.20557-0.11475-0.15381-0.36182-0.16699-0.55273,0.010742-8.2637-0.003418-16.528,0.0068359-24.792-0.020508-0.1875,0.030762-0.37988,0.21289-0.46484,0.93848-0.56836,1.8335-1.2085,2.7764-1.7715-0.12549-0.62354-0.64209-1.0693-0.92334-1.623-0.33057,0.083984-0.60596,0.28516-0.87549,0.48145-6.9297,4.5259-13.897,9.0024-20.8,13.563-0.019531,0.5874,0.65967,1.1245,0.94629,1.6665,0.55566-0.37695,1.1143-0.75146,1.6929-1.0933,0.62646,4.0581,2.0518,8.0825,4.6421,11.317,2.5317,2.9287,6.2256,4.7183,10.045,5.1919,3.7832,0.3667,7.6636,0.091797,11.316-0.99658,2.7988-0.85596,5.4629-2.3628,7.3818-4.6045,1.4268-1.6191,2.4272-3.5674,3.189-5.5728,1.7393-4.8574,2.1924-10.065,2.2119-15.188,0.0073242-15.752,0.019043-31.506,0.0073242-47.258,0.027344-0.35498-0.11084-0.84863,0.25977-1.0669,0.8623-0.57959,1.7251-1.1582,2.6069-1.708-0.16162-0.50244-0.5293-0.89111-0.80811-1.3262-0.297-0.048-0.538,0.125-0.763,0.293z"/>
<path d="M71.026,70.869c0.032227,0.011719,0.09668,0.033691,0.12891,0.04541-0.038574,15.568-0.0078125,31.138-0.046387,46.708,0.0053711-15.235,0.047852-30.47,0.0078125-45.703-0.018066-0.33398,0.053223-0.68408-0.076172-1.0029l-0.015-0.045z"/>
</g>
</svg>