<?xml version="1.0" encoding="UTF-8" standalone="no"?>
<!-- Created with Inkscape (http://www.inkscape.org/) -->

<svg
   version="1.1"
   id="svg1"
   width="258.66666"
   height="258.66666"
   viewBox="0 0 258.66666 258.66666"
   sodipodi:docname="ponte-preta-seeklogo.eps"
   xmlns:inkscape="http://www.inkscape.org/namespaces/inkscape"
   xmlns:sodipodi="http://sodipodi.sourceforge.net/DTD/sodipodi-0.dtd"
   xmlns="http://www.w3.org/2000/svg"
   xmlns:svg="http://www.w3.org/2000/svg">
  <defs
     id="defs1" />
  <sodipodi:namedview
     id="namedview1"
     pagecolor="#ffffff"
     bordercolor="#000000"
     borderopacity="0.25"
     inkscape:showpageshadow="2"
     inkscape:pageopacity="0.0"
     inkscape:pagecheckerboard="0"
     inkscape:deskcolor="#d1d1d1">
    <inkscape:page
       x="0"
       y="0"
       inkscape:label="1"
       id="page1"
       width="258.66666"
       height="258.66666"
       margin="0"
       bleed="0" />
  </sodipodi:namedview>
  <g
     id="g1"
     inkscape:groupmode="layer"
     inkscape:label="1">
    <path
       id="path1"
       d="M 2.59766,1933.23 H 1930.16 V 5.66797 H 2.59766 V 1933.23"
       style="fill:#ffffff;fill-opacity:1;fill-rule:evenodd;stroke:none"
       transform="matrix(0.13333333,0,0,-0.13333333,0,258.66667)" />
    <path
       id="path2"
       d="m 1781.92,749.773 v 0 c -2.15,145.907 -50.4,254.867 -97.07,360.247 -33.17,79.75 -47.29,135.66 -51.96,205.88 3.67,84.51 30.19,151.15 71.79,231.2 l 35.18,67.66 -301.44,290.12 -5.4,-3.25 -61.59,-37.03 c -115.62,-69.52 -259.31,-109.22 -404.602,-111.8 -151.969,-2.7 -292.633,34.27 -406.769,106.9 l -67.352,42.85 -301.402,-287.2 34.906,-67.87 c 29.684,-57.71 50.43,-109.47 65.285,-162.84 3.348,-22.87 4.988,-44.16 4.988,-65.05 0,-79.39 -24.183,-147.68 -50.32,-209.66 -31.578,-71.47 -70.949,-160.578 -89.773,-256.739 l -0.758,-3.867 -0.457,-3.922 c -2.93,-25.117 -4.414,-50.648 -4.414,-75.882 0,-107.059 26.144,-209.817 75.613,-297.168 l 3.426,-6.047 4.211,-5.524 c 37.691,-49.441 79.125,-88.551 126.664,-119.57 l 2.379,-1.551 2.453,-1.414 C 445.344,292.293 528.875,261.25 609.656,231.227 716.313,191.598 817.027,154.172 898.883,86.707 l 63.922,-52.6914 64.685,51.75 c 52.76,42.2074 105.97,73.3284 172.55,100.9104 36.02,14.746 73.04,28.16 112.23,42.359 83.59,30.301 169.99,61.621 252.97,109.043 l 3.51,1.996 3.36,2.301 c 163.28,111.332 197.15,256.602 209.43,397.004 l 0.46,5.187 -0.08,5.207"
       style="fill:#231f20;fill-opacity:1;fill-rule:evenodd;stroke:none"
       transform="matrix(0.13333333,0,0,-0.13333333,0,258.66667)" />
    <path
       id="path3"
       d="m 1398.56,1819.48 c -123.42,-74.21 -276.41,-116.59 -430.798,-119.33 -162.332,-2.88 -313.086,36.93 -435.973,115.13 l -32.59,20.73 -243.054,-231.61 16.886,-32.83 c 31.989,-62.19 54.278,-118.21 70.11,-176.02 3.996,-26.25 5.906,-51.21 5.906,-75.21 0,-82.41 -21.918,-153.95 -54.43,-231.02 -30.746,-69.6 -68.91,-156.093 -86.554,-246.246 l -0.368,-1.867 -0.218,-1.898 c -2.727,-23.344 -4.071,-46.688 -4.071,-69.864 0,-97.187 23.672,-191.484 68.785,-271.152 l 1.657,-2.922 2.043,-2.672 c 34.445,-45.195 70.527,-79.312 113.558,-107.394 l 1.156,-0.754 1.192,-0.688 C 467.836,340.094 549.305,309.82 628.094,280.547 738.961,239.352 843.676,200.434 932.367,127.328 l 30.934,-25.488 31.301,25.043 c 56.788,45.433 113.938,78.883 185.288,108.437 37.18,15.223 76.45,29.453 114.44,43.219 81.47,29.535 165.73,60.07 244.79,105.246 l 1.7,0.973 1.61,1.105 c 137.09,93.477 173.77,210.766 186.66,358.106 l 0.22,2.508 -0.04,2.523 c -1.98,134.871 -48.1,239.289 -92.8,340.22 -36.17,86.89 -51.52,148.61 -56.37,226.32 3.62,95.03 32.47,168.48 77.86,255.84 l 17.02,32.74 -244,234.85 -32.42,-19.49"
       style="fill:#ffffff;fill-opacity:1;fill-rule:evenodd;stroke:none"
       transform="matrix(0.13333333,0,0,-0.13333333,0,258.66667)" />
    <path
       id="path4"
       d="m 1693.08,748.461 c -1.76,118.91 -36.78,206.602 -90.02,326.809 -37.68,90.47 -54.33,157.93 -59.24,240.06 3.59,102.24 35.39,183 82.02,272.74 l 4.54,8.73 -204.52,196.85 -8.65,-5.2 c -128.77,-77.43 -288.16,-121.64 -448.804,-124.49 -169.457,-3.01 -327.156,38.75 -456.051,120.77 l -8.687,5.54 -202.949,-193.39 4.504,-8.76 c 33.543,-65.21 56.875,-124.05 73.418,-185.07 4.55,-29.2 6.679,-56.82 6.679,-83.33 0,-87.73 -23.129,-163.39 -57.429,-244.66 -29.977,-67.85 -67.387,-152.529 -84.305,-238.939 l -0.098,-0.5 -0.058,-0.504 c -2.563,-21.984 -3.832,-43.949 -3.832,-65.75 0,-90.941 22.054,-179 64.093,-253.23 l 0.442,-0.785 0.547,-0.711 c 31.863,-41.801 65.086,-73.266 104.55,-99.02 l 0.309,-0.199 0.32,-0.188 c 73.414,-42.257 153.446,-72 230.84,-100.754 C 749.5,274.055 861.996,232.242 955.391,155.266 l 8.25,-6.797 8.343,6.679 c 59.576,47.653 119.416,82.692 194.056,113.618 38,15.55 77.62,29.918 115.95,43.808 80.05,29.012 162.81,59.004 239.16,102.641 l 0.46,0.258 0.43,0.297 c 125.33,85.464 159,194.273 170.99,331.351 l 0.06,0.668 z m -129.78,768.909 -77.12,-33.13 v 214.81 c 47.29,-45.51 104.3,-100.38 111.81,-107.61 -12.83,-25.06 -24.45,-49.54 -34.69,-74.07 z m -899.851,166.36 c 61.301,-20.91 126.227,-34.89 193.688,-41.6 v -428.1 l -193.688,-83.2 z m 408.701,-38.7 c 68.4,8.56 135.48,24.3 199.04,46.57 v -299.71 l -199.04,-85.5 z M 352.059,1064.62 c 35.64,84.45 59.644,163.11 59.644,254.67 0,28.11 -2.262,57.44 -7.148,88.53 l -0.114,0.71 -0.183,0.68 c -16.293,60.32 -39.074,118.47 -71.203,182.12 7.773,7.4 67.785,64.59 115.379,109.94 V 1038.46 L 316.648,981.859 c 11.832,29.371 24.145,57.261 35.411,82.761 z M 269.535,831.563 c 7.731,39.292 19.981,78.48 33.836,115.945 L 1549.96,1482.98 c -18.66,-52.18 -30.4,-105.94 -32.49,-167.37 l -0.02,-0.62 0.04,-0.61 c 4.07,-69.09 16.55,-125.29 34.83,-179.65 l -0.25,0.59 L 296.559,594.203 c -20.161,54.504 -30.637,114.074 -30.637,175.106 0,20.632 1.203,41.429 3.613,62.254 z M 857.137,251.281 c -62.672,33.375 -128.66,58.617 -193.688,82.828 v 389.555 l 193.688,83.477 z M 326.223,529.836 c -7.262,12.875 -13.879,26.215 -19.868,39.918 l 142.079,61.234 v -206.91 c -8.457,4.457 -16.84,9.039 -25.114,13.797 -36.492,23.863 -67.375,53.121 -97.097,91.961 z M 1156,293.102 c -29.97,-12.414 -57.61,-25.52 -83.85,-39.774 v 646.481 l 199.04,85.785 V 336.664 C 1233.18,322.879 1193.95,308.641 1156,293.102 Z m 351.61,144.707 c -7.08,-4.032 -14.23,-7.922 -21.43,-11.731 v 652.172 l 74.72,32.2 c 5.59,-15.12 11.59,-30.24 17.98,-45.57 51.94,-117.29 86.06,-202.575 87.85,-316.169 -11.69,-132.801 -42.51,-231.203 -159.12,-310.902"
       style="fill:#231f20;fill-opacity:1;fill-rule:evenodd;stroke:none"
       transform="matrix(0.13333333,0,0,-0.13333333,0,258.66667)" />
    <path
       id="path5"
       d="m 331.148,646.992 37.309,275.442 53.316,23.109 127.934,-202.578 -53.312,-23.086 -23.09,42.613 -85.297,-37.312 -7.113,-56.84 z m 62.184,126.199 56.859,24.875 -46.203,83.489 z m 231.023,55.051 8.872,-47.969 -47.965,-21.304 -10.68,47.969 z m 40.852,-33.746 35.555,273.654 55.093,24.88 127.938,-204.339 -53.313,-21.359 -23.093,40.879 -85.297,-35.523 -5.324,-56.883 z m 62.211,124.399 56.855,26.648 -46.203,83.517 z m 231.02,56.851 8.867,-47.984 -49.746,-23.117 -8.891,49.769 z m 60.402,-26.66 -46.207,238.134 101.307,44.42 c 21.3,10.66 37.31,10.66 51.53,5.33 12.43,-5.33 23.08,-16.01 30.22,-30.2 5.3,-16 7.09,-30.23 5.3,-47.99 -1.78,-16 -8.86,-31.99 -17.74,-44.42 -10.7,-14.22 -23.14,-24.88 -40.87,-33.77 l -53.32,-23.09 17.74,-87.082 z m 23.09,147.504 46.23,21.31 c 7.08,1.78 12.43,8.89 16,14.22 7.09,5.33 8.87,14.22 8.87,21.33 0,8.87 0,15.98 -3.57,24.87 -3.57,7.12 -10.65,12.45 -16,14.23 -7.09,0 -15.96,-1.78 -26.66,-5.33 l -40.85,-17.79 z m 191.95,0 8.87,-49.77 -49.75,-21.33 -8.91,49.77 z m 58.62,-26.65 -44.4,238.1 101.28,44.42 c 19.52,10.68 35.53,10.68 49.75,5.36 14.21,-5.36 24.87,-16.01 30.22,-30.23 7.09,-15.98 8.87,-31.98 7.09,-47.96 -1.79,-16 -8.87,-32.01 -17.74,-46.2 -10.71,-12.47 -23.14,-23.12 -40.88,-32.01 l -55.1,-23.1 19.52,-87.07 z m 24.87,147.48 46.23,21.33 c 7.08,1.79 12.44,8.87 16,14.22 5.31,5.33 8.87,14.2 8.87,21.31 0,8.89 0,16 -5.35,23.11 -3.52,8.87 -8.87,14.22 -14.22,15.98 -7.09,0 -15.95,-1.76 -26.66,-5.33 l -40.83,-17.76 z m 190.17,0 10.65,-49.75 -49.75,-21.33 -8.92,49.75 48.02,21.33"
       style="fill:#231f20;fill-opacity:1;fill-rule:evenodd;stroke:none"
       transform="matrix(0.13333333,0,0,-0.13333333,0,258.66667)" />
  </g>
</svg>
