<?xml version="1.0" encoding="UTF-8" standalone="no"?>
<svg
   version="1.1"
   width="595.27557pt"
   height="595.27557pt"
   id="svg7"
   viewBox="0 0 500.27557 595.27557"
   sodipodi:docname="aa-portuguesa-santista-sp-seeklogo.cdr"
   xmlns:inkscape="http://www.inkscape.org/namespaces/inkscape"
   xmlns:sodipodi="http://sodipodi.sourceforge.net/DTD/sodipodi-0.dtd"
   xmlns="http://www.w3.org/2000/svg"
   xmlns:svg="http://www.w3.org/2000/svg">
  <defs
     id="defs7" />
  <sodipodi:namedview
     id="namedview7"
     pagecolor="#ffffff"
     bordercolor="#000000"
     borderopacity="0.25"
     inkscape:showpageshadow="2"
     inkscape:pageopacity="0.0"
     inkscape:pagecheckerboard="0"
     inkscape:deskcolor="#d1d1d1"
     inkscape:document-units="pt" />
  <path
     d="M 261.0896,26.8333 C 213.1311,61.3573 163.3521,72.4158 102.221,62.3925 l -83.4582,80.6123 c 34.7479,30.484 50.8946,72.7406 34.2176,152.3256 -11.816,56.3873 -24.9273,108.6474 32.3756,169.2556 42.7538,45.2199 125.0484,49.1006 175.7336,97.3284 50.6851,-48.2278 132.9797,-52.1085 175.7335,-97.3284 57.303,-60.6082 44.1916,-112.8683 32.3757,-169.2556 -16.6771,-79.585 -0.5304,-121.8416 34.2175,-152.3256 L 419.9581,62.3925 C 358.827,72.4158 309.0481,61.3573 261.0896,26.8333 Z"
     style="fill:#357634;fill-rule:evenodd"
     id="path1" />
  <path
     d="m 261.0896,50.8297 c -47.0061,30.1825 -96.3139,39.8909 -152.102,32.614 L 46.959,143.3571 c 37.2674,43.6912 37.4604,98.6905 25.4421,156.043 -13.0048,62.0609 -20.3465,101.0815 27.3733,151.5538 24.2671,25.6665 71.4651,39.5248 103.7336,53.1637 20.3907,8.6188 40.0983,18.4595 57.5804,31.7863 2.763,-2.1075 5.5888,-4.1343 8.4688,-6.0842 15.3581,-10.3984 32.0653,-18.4958 49.1139,-25.7021 32.2685,-13.6389 79.4665,-27.4972 103.7336,-53.1637 47.7199,-50.4723 40.3781,-89.4929 27.3733,-151.5538 -12.0183,-57.3525 -11.8252,-112.3518 25.4421,-156.043 L 413.1916,83.4437 c -55.7881,7.2769 -105.0959,-2.4315 -152.102,-32.614 z"
     style="fill:#ffffff;fill-rule:evenodd"
     id="path2" />
  <g
     id="Layer1000">
    <path
       d="M 261.0896,170.4319 H 182.179 l 42.2181,37.3091 v 20.3533 h -24.5452 v 48.3738 H 165.488 L 127.2932,233.6156 V 391.9949 L 165.168,348.141 h 45.4839 c 2.8856,5.5267 7.3613,9.8606 13.7452,12.7635 v 39.2729 l -42.2181,37.3091 h 78.9106 78.9106 l -42.2181,-37.3091 v -39.2729 c 6.3839,-2.9029 10.8595,-7.2368 13.7452,-12.7635 h 45.4838 l 37.8749,43.8539 V 233.6156 l -38.1949,42.8525 H 322.3273 V 228.0943 H 297.7821 V 207.741 l 42.2181,-37.3091 z"
       style="fill:#d5411b;fill-rule:evenodd"
       id="path3" />
    <path
       d="m 270.7254,357.611 c 18.735,-1.5407 34.0347,-15.7043 37.3212,-33.9092 h 51.9154 v -21.602 h -51.2589 v -60.7785 c 0,-0.2449 -0.005,-0.4887 -0.009,-0.7324 h -37.9684 v -38.6754 h -21.602 v 38.6754 h -37.1582 c -0.004,0.2437 -0.009,0.4875 -0.009,0.7324 v 60.7785 h -52.6362 v 21.602 h 53.2924 c 3.2389,17.9425 18.1466,31.9609 36.5114,33.8369 v 45.0173 h 21.602 z"
       style="fill:#ffffff;fill-rule:evenodd"
       id="path4" />
    <path
       d="m 234.4467,254.3263 h 2e-4 c 6.4855,0 11.7915,8.8648 11.7915,15.35 v 20.8776 18.0803 22.9188 h -6.1597 v -23.4171 h -11.4968 v 23.4171 h -5.9267 v -22.9188 -18.0803 -21.1508 c 0,-6.4855 5.306,-15.0768 11.7915,-15.0768 z m 5.632,43.0145 v -24.5212 c 0,-3.1615 -2.5867,-9.1355 -5.7484,-9.1355 v 0 c -3.1618,0 -5.7484,5.9738 -5.7484,9.1355 v 24.5212 z"
       style="fill:#d5411b;fill-rule:evenodd"
       id="path5" />
    <path
       d="m 261.4994,254.3263 h 3e-4 c 6.4855,0 11.7914,8.8648 11.7914,15.35 v 20.8776 18.0803 22.9188 h -6.1597 v -23.4171 h -11.4968 v 23.4171 h -5.9266 v -22.9188 -18.0803 -21.1508 c 0,-6.4855 5.3059,-15.0768 11.7914,-15.0768 z m 5.632,43.0145 v -24.5212 c 0,-3.1615 -2.5866,-9.1355 -5.7484,-9.1355 v 0 c -3.1617,0 -5.7484,5.9738 -5.7484,9.1355 v 24.5212 z"
       style="fill:#d5411b;fill-rule:evenodd"
       id="path6" />
    <path
       d="m 276.6221,274.0081 c 0,-12.9436 7.7456,-22.6078 14.3645,-17.9095 5.8132,4.1264 9.1778,14.4875 7.2759,32.2739 -1.1746,10.9844 -4.4582,15.6898 -15.2974,14.9243 v 28.2562 h -6.343 z m 6.343,19.7743 h 5.9695 c 3.6313,-6.4326 4.9537,-14.739 2.052,-22.946 -3.7144,-10.5055 -8.0215,-2.5473 -8.0215,6.1562 z"
       style="fill:#d5411b;fill-rule:evenodd"
       id="path7" />
  </g>
</svg>
