<?xml version="1.0" encoding="UTF-8" standalone="no"?>
<!-- Created with Inkscape (http://www.inkscape.org/) -->

<svg
   version="1.1"
   id="svg1"
   width="258.66666"
   height="258.66666"
   viewBox="0 0 258.66666 258.66666"
   sodipodi:docname="associacao-portuguesa-de-desportos-de-sao-paulo-sp-seeklogo.eps"
   xmlns:inkscape="http://www.inkscape.org/namespaces/inkscape"
   xmlns:sodipodi="http://sodipodi.sourceforge.net/DTD/sodipodi-0.dtd"
   xmlns="http://www.w3.org/2000/svg"
   xmlns:svg="http://www.w3.org/2000/svg">
  <defs
     id="defs1" />
  <sodipodi:namedview
     id="namedview1"
     pagecolor="#ffffff"
     bordercolor="#000000"
     borderopacity="0.25"
     inkscape:showpageshadow="2"
     inkscape:pageopacity="0.0"
     inkscape:pagecheckerboard="0"
     inkscape:deskcolor="#d1d1d1">
    <inkscape:page
       x="0"
       y="0"
       inkscape:label="1"
       id="page1"
       width="258.66666"
       height="258.66666"
       margin="0"
       bleed="0" />
  </sodipodi:namedview>
  <g
     id="g1"
     inkscape:groupmode="layer"
     inkscape:label="1">
    <path
       id="path1"
       d="M 2.59766,1933.23 H 1930.16 V 5.66797 H 2.59766 V 1933.23"
       style="fill:#ffffff;fill-opacity:1;fill-rule:evenodd;stroke:none"
       transform="matrix(0.13333333,0,0,-0.13333333,0,258.66667)" />
    <path
       id="path2"
       d="M 966.379,90.707 C 122.898,587.824 249.348,1394.84 305.629,1698.94 c 71.301,-129.76 202.379,-145.03 286.957,-106.58 105.352,47.91 156.34,154.64 144.293,255.83 130.656,-163.02 328.391,-162.99 459.001,-0.04 -12.05,-101.19 38.94,-207.92 144.29,-255.82 84.58,-38.46 215.65,-23.19 286.96,106.58 C 1683.4,1394.81 1809.86,587.785 966.379,90.707"
       style="fill:#ee2722;fill-opacity:1;fill-rule:evenodd;stroke:none"
       transform="matrix(0.13333333,0,0,-0.13333333,0,258.66667)" />
    <path
       id="path3"
       d="M 966.379,188.895 C 302.469,589.082 327.234,1274.27 364.59,1527.84 c 156.308,-93.2 360.223,0.12 431.09,158.3 111.039,-56.23 230.36,-56.26 341.39,-0.03 70.87,-158.18 274.79,-251.5 431.09,-158.31 37.36,-253.57 62.12,-938.753 -601.781,-1338.905"
       style="fill:#ffffff;fill-opacity:1;fill-rule:evenodd;stroke:none"
       transform="matrix(0.13333333,0,0,-0.13333333,0,258.66667)" />
    <path
       id="path4"
       d="m 1045.05,548.16 v 545.36 c 58.17,-5.84 123.15,-17.91 209.54,-36.25 l -8.66,-1.57 c -45.83,9.55 -79.05,-9.94 -84.98,-30.1 -4.05,-13.79 4.48,-28.245 30.02,-34.721 26.11,-6.621 44.94,16.721 74.11,9.098 27.04,-7.067 47.07,-35.825 86.51,-42.813 18.3,-3.238 45.89,2.238 54.71,26.027 5.75,15.528 0.43,32.049 6,54.439 6.8,27.33 25.14,22.48 32.65,59.62 8.19,37 -10.53,40.03 -5.63,67.77 4.02,22.72 15.61,35.64 16.67,52.17 1.62,25.32 -21.36,41.54 -39.39,46.03 -38.87,9.66 -68.87,-8.46 -96.45,-3.93 -29.75,4.9 -37.46,33.89 -64.01,38.46 -25.96,4.47 -39.63,-5.27 -41.54,-19.52 -2.79,-20.82 19.37,-52.09 65.13,-62 l 7.39,-4.98 c -100.55,21.32 -175.05,35.03 -242.07,41.16 v 127.23 l 3.35,-8.26 c 0.19,-46.82 26.16,-75 47.11,-76.6 14.33,-1.1 26.7,10.25 27.72,36.58 1.06,26.91 -25.7,40.48 -24.31,70.6 1.3,27.92 25.26,53.49 23.9,93.52 -0.64,18.58 -11.73,44.42 -36.84,48.1 -16.38,2.4 -31.43,-6.24 -54.5,-5.45 -28.14,0.97 -27.21,19.91 -65.101,19.6 -37.895,0.36 -36.965,-18.58 -65.106,-19.55 -23.07,-0.79 -38.117,7.85 -54.503,5.45 -25.106,-3.68 -36.2,-29.52 -36.832,-48.09 -1.368,-40.04 22.593,-65.61 23.89,-93.53 1.395,-30.12 -25.355,-43.69 -24.308,-70.6 1.023,-26.33 13.386,-37.68 27.718,-36.58 20.957,1.6 46.926,30.05 47.11,76.87 l 3.347,8.14 v -127.45 c -67.019,-6.15 -141.511,-19.88 -242.058,-41.23 l 7.386,4.99 c 45.754,9.92 67.918,41.18 65.129,62.01 -1.91,14.25 -15.578,23.98 -41.539,19.51 -26.547,-4.57 -34.261,-33.56 -64.008,-38.46 -27.578,-4.53 -57.57,13.59 -96.445,3.93 -18.039,-4.48 -41.008,-20.71 -39.387,-46.03 1.055,-16.53 12.637,-29.45 16.657,-52.18 4.902,-27.73 -13.817,-30.76 -5.629,-67.75 7.515,-37.15 25.851,-32.3 32.652,-59.63 5.574,-22.4 0.25,-38.909 6.004,-54.437 8.816,-23.793 36.402,-29.273 54.703,-26.027 39.442,6.984 59.477,35.738 86.516,42.812 29.164,7.622 48,-15.722 74.113,-9.101 25.539,6.476 34.063,20.933 30.012,34.723 -5.922,20.16 -39.145,39.65 -84.977,30.1 l -8.66,1.57 c 86.387,18.36 151.367,30.45 209.531,36.31 V 547.668 l -3.793,8.832 c -0.179,46.816 -25.707,74.992 -46.664,76.598 -14.332,1.093 -26.695,-10.25 -27.718,-36.578 -1.047,-26.918 25.703,-40.489 24.308,-70.602 -1.297,-27.918 -25.258,-53.488 -23.89,-93.527 0.632,-18.575 11.726,-44.414 36.832,-48.09 16.386,-2.403 31.433,6.238 54.503,5.441 28.141,-0.969 27.211,-19.914 65.106,-19.539 37.891,-0.32 36.961,18.621 65.101,19.59 23.07,0.793 38.12,-7.844 54.5,-5.445 25.11,3.679 36.2,29.519 36.84,48.093 1.36,40.039 -22.6,65.61 -23.9,93.528 -1.39,30.113 25.37,43.683 24.31,70.601 -1.02,26.328 -13.39,37.668 -27.72,36.575 -20.95,-1.598 -46.83,-29.782 -47.01,-76.594 l -3.45,-8.391"
       style="fill:#198538;fill-opacity:1;fill-rule:evenodd;stroke:none"
       transform="matrix(0.13333333,0,0,-0.13333333,0,258.66667)" />
    <path
       id="path5"
       d="m 986.727,1348.19 c -0.434,10.76 -9.461,19.35 -20.356,19.35 -10.808,0 -19.785,-8.44 -20.348,-19.08 0,-50.05 0,-100.09 0,-150.14 -75.609,-2.1 -154.515,-15.86 -273.332,-41.27 -10.437,-2.67 -16.961,-13.28 -14.695,-23.94 2.246,-10.57 12.367,-17.6 22.895,-15.94 115.089,24.54 191.742,37.85 265.132,39.94 0,-192.547 0,-385.087 0,-577.641 0.563,-10.645 9.54,-19.086 20.348,-19.086 10.895,0 19.922,8.59 20.356,19.355 0,192.461 0,384.918 0,577.372 73.393,-2.07 150.043,-15.35 265.143,-39.86 10.52,-1.66 20.65,5.36 22.89,15.94 2.27,10.65 -4.26,21.27 -14.69,23.94 -118.83,25.39 -197.73,39.12 -273.343,41.2 0,49.96 0,99.9 0,149.86"
       style="fill:#ffffff;fill-opacity:1;fill-rule:evenodd;stroke:none"
       transform="matrix(0.13333333,0,0,-0.13333333,0,258.66667)" />
  </g>
</svg>
