<?xml version="1.0" encoding="UTF-8"?>
<!DOCTYPE svg PUBLIC "-//W3C//DTD SVG 1.1//EN" "http://www.w3.org/Graphics/SVG/1.1/DTD/svg11.dtd">
<!-- Creator: CorelDRAW 2021 (64 Bit) -->
<svg xmlns="http://www.w3.org/2000/svg" xml:space="preserve" width="135.043mm" height="254mm" version="1.1" style="shape-rendering:geometricPrecision; text-rendering:geometricPrecision; image-rendering:optimizeQuality; fill-rule:evenodd; clip-rule:evenodd"
viewBox="0 0 13504.32 25399.98"
 xmlns:xlink="http://www.w3.org/1999/xlink"
 xmlns:xodm="http://www.corel.com/coreldraw/odm/2003">
 <defs>
  <style type="text/css">
   <![CDATA[
    .fil7 {fill:#FFF212}
    .fil3 {fill:black}
    .fil1 {fill:#005B1E}
    .fil5 {fill:#007025}
    .fil11 {fill:#989898}
    .fil13 {fill:#B18A27}
    .fil10 {fill:#C8C8C8}
    .fil12 {fill:#D1A32E}
    .fil8 {fill:#D2E28A}
    .fil6 {fill:red}
    .fil4 {fill:white}
    .fil0 {fill:white}
    .fil9 {fill:#005B1E;fill-rule:nonzero}
    .fil2 {fill:#E60000;fill-rule:nonzero}
   ]]>
  </style>
 </defs>
 <g id="Camada_x0020_1">
  <metadata id="CorelCorpID_0Corel-Layer"/>
  <g id="_2755346789568">
   <g>
    <path class="fil0" d="M-7.14 5515.32l13504.33 0 0 13947.24c0,3266.43 -2673.74,5937.96 -5942.88,5937.96l-1618.57 0c-3269.14,0 -5942.88,-2671.53 -5942.88,-5937.96l0 -13947.24z"/>
    <path class="fil0" d="M7303.66 1230.55l1172.06 -2.19c93.16,-0.18 172.35,57.54 200.65,146.22 28.29,88.68 -2.85,181.54 -78.92,235.27l-945.29 667.76 362.05 1080.76c29.39,87.73 0.18,180.39 -74.24,235.44 -74.43,55.06 -171.65,55.93 -247.06,2.23l-947.91 -675.03 -947.86 675.03c-75.4,53.7 -172.63,52.83 -247.05,-2.23 -74.43,-55.05 -103.64,-147.7 -74.25,-235.44l362.05 -1080.76 -945.31 -667.76c-76.07,-53.73 -107.21,-146.59 -78.92,-235.27 28.3,-88.68 107.49,-146.4 200.65,-146.22l1172.07 2.19 359.05 -1085.9c28.94,-87.52 107.32,-144.13 199.57,-144.13 92.25,0 170.64,56.61 199.58,144.12l359.08 1085.91zm-4152.94 1561.74l997.66 -1.87c93.17,-0.18 172.35,57.53 200.65,146.22 28.3,88.68 -2.85,181.54 -78.92,235.27l-803.99 567.94 307.83 918.93c29.39,87.74 0.18,180.39 -74.25,235.45 -74.43,55.05 -171.64,55.93 -247.05,2.23l-807 -574.68 -806.97 574.67c-75.4,53.71 -172.63,52.83 -247.05,-2.22 -74.43,-55.06 -103.64,-147.72 -74.25,-235.45l307.84 -918.93 -804.01 -567.94c-76.06,-53.73 -107.21,-146.59 -78.91,-235.27 28.29,-88.69 107.48,-146.4 200.64,-146.22l997.67 1.87 305.47 -923.87c28.94,-87.52 107.32,-144.13 199.58,-144.13 92.24,0 170.63,56.61 199.57,144.13l305.49 923.87zm8198.73 0l997.66 -1.87c93.16,-0.18 172.35,57.53 200.65,146.22 28.29,88.68 -2.85,181.54 -78.92,235.27l-804 567.94 307.84 918.93c29.39,87.73 0.18,180.39 -74.25,235.45 -74.43,55.05 -171.64,55.93 -247.05,2.23l-807 -574.68 -806.97 574.67c-75.4,53.71 -172.63,52.83 -247.05,-2.22 -74.43,-55.06 -103.64,-147.71 -74.25,-235.45l307.83 -918.93 -804 -567.94c-76.07,-53.73 -107.22,-146.59 -78.92,-235.27 28.3,-88.69 107.48,-146.4 200.65,-146.22l997.66 1.87 305.48 -923.87c28.93,-87.52 107.31,-144.13 199.57,-144.13 92.24,0 170.63,56.61 199.57,144.13l305.5 923.87z"/>
   </g>
   <g>
    <path class="fil1" d="M276.26 5798.49l12937.53 0 0 13659.37c0,3112.72 -2546.76,5659.49 -5659.48,5659.49l-1618.57 0c-3112.72,0 -5659.48,-2546.77 -5659.48,-5659.49l0 -13659.37z"/>
    <path class="fil0" d="M744.71 6316.14l12000.63 0 0 13055.02c0,2887.3 -2362.33,5249.64 -5249.63,5249.64l-1501.37 0c-2887.3,0 -5249.63,-2362.34 -5249.63,-5249.64l0 -13055.02z"/>
    <g>
     <path class="fil2" d="M1576.02 11049.06l0 8404.21c0,1217.31 504.37,2218.43 1305.03,3020.99 800.27,802.15 1904.21,1300.26 3118.19,1300.26l1505.92 0c1213.98,0 2317.92,-498.11 3118.19,-1300.26 800.65,-802.56 1290.66,-1803.68 1290.66,-3020.99l0 -8404.21 -10337.99 0zm-428.8 8404.21l0 -8832.66 11195.6 0 0 8832.66c0,1334.2 -538.13,2441.99 -1416.29,3322.23 -878.57,880.63 -2089.87,1427.47 -3421.37,1427.47l-1505.92 0c-1331.5,0 -2542.81,-546.84 -3421.37,-1427.47 -878.17,-880.24 -1430.65,-1988.03 -1430.65,-3322.23z"/>
     <path class="fil2" d="M1576.02 7163.13l0 2624.37 10337.99 0 0 -2624.37 -10337.99 0zm-428.8 2838.6l0 -3267.05 11195.6 0 0 3481.27 -11195.6 0 0 -214.22z"/>
    </g>
    <g>
     <path class="fil3" d="M7067.65 12068.39c110.84,-102.39 264.15,-212.25 421.5,-177.92 121,26.41 211.05,130.29 276.55,226.32 74.68,109.49 164.81,236.15 280.73,306.13 239.63,144.67 248.97,455.3 212.3,698.08l243.04 145.59 -291.86 196.26 -3.62 27.05 278.59 114.15 -306.55 105.93 281.22 132.76 -312.86 146.42 236.86 125.19 -261.17 122.79 294.95 148.83 -318.47 140.07 234.03 139.77 -251.54 145.37 243.1 85.09 -250.83 182.12 225.49 89.48 -171.55 245.61 334.53 505.8c69.64,105.3 148.75,231.27 153.13,360.04 3.46,101.55 -42.48,213.22 -95.88,314.8l151.29 22.35 -123.85 315.38 326.51 -27.31 -174.18 356.13 368.39 -10.45 -182.51 459.71 342.94 -15.25 -217.51 337.83 0 0.01 377.93 7.85 -250.99 311.56 352.32 25.89 -190.24 339.59 0.01 0.01 266.22 -59.76 -129.82 298.24 0.02 0.02 290.24 -26.64 -47.44 342.06c7.51,8.32 15.1,16.6 22.73,24.86l303.34 -136.46 -38.72 391.25 0.02 0.01 334.24 -70.27 -49.92 320.31 328.57 -81.62 -91.75 402.75 277.5 41.7 -179.18 329.7 212.96 106.53 -266.36 186.51 148.14 183.87 -286.41 75.08 92.22 278.84 -345.62 15.69 33.19 305.3 -336.01 -88.35 -1.73 285.89 -395.48 -95.46 7.06 235.38 -319.02 -105.01 -1.84 212.01 -284.42 -73.51 -4.57 2.53 0.01 0 -15 235.59 -254.24 -47.46 93.81 220.3 -239.6 68.44 180.5 79.71 -200.68 172.92c0.09,21.52 0.49,42.75 1.03,63.56 1.72,65.39 -10.93,162.87 -87.14,185.7 -78.47,23.51 -152.49,-52.54 -189.95,-110.1 -67.89,-104.3 -93.07,-240.11 -93.33,-361.9 -0.74,-349.63 256.65,-703.94 517.93,-926.96 2.18,-24.29 -1.14,-57.62 -17.31,-75.9 -21.63,3.76 -43.3,2.63 -64.6,-4.7 -67.88,-23.38 -118.37,-112.29 -164.4,-164.44 -60.51,-68.55 -123.93,-101.18 -214.23,-95.39 -4.02,24.74 -4.76,52.99 -5.74,76.06 -1.89,44.27 -3.28,88.43 -8.33,132.51 -14.49,126.49 -59.93,243.31 -198.36,269.21 -35.83,103.15 -94.94,196.34 -192.37,254.4l-23.8 14.18 -15.31 -22.73c-73.32,-108.91 -71.74,-230.53 -75.13,-355.21 -55.65,-73.83 -35.52,-188.08 -1.04,-266.17 21.18,-47.98 67.9,-171.14 15.19,-215 -45.01,-37.45 -140.21,-0.68 -184.35,20.74 -157.95,76.63 -226.69,334.7 -403.58,373.65 -66.36,43.29 -125.25,136.39 -155.59,207.04l-21.9 51 -29.32 -47.32c-77.78,-125.53 -96.94,-243.62 -27.07,-375.4 -0.44,-158.47 144.25,-314.26 246.25,-425.02 57.13,-62.05 116.84,-124.05 168.25,-190.7 101.66,-131.82 120.82,-314.56 122.39,-474.27 1.1,-112.23 -6.62,-225.37 -16.35,-337.16 -10.86,-124.83 -24.61,-249.49 -37.83,-374.12 -381.4,16.77 -758.94,-54.62 -1101.7,-221.08 -274.91,-133.49 -514.58,-322.1 -709.71,-552.81 -176.85,19.54 -352.41,-5.71 -520.9,-58.78l12.34 170.06c205.61,105.07 292.37,268.32 229.02,490.77 67.8,155.08 102.3,321.32 102.3,489.97 0,690.74 -574.47,1250.7 -1283.09,1250.7 -708.61,0 -1283.09,-559.97 -1283.09,-1250.7 0,-350.41 149.19,-681.55 412.57,-918.74 -46.59,-166.64 4.58,-272.58 174.1,-337.74 4.5,-16.07 12.48,-30.74 24.63,-43.21 67.46,-69.22 237.49,-32.07 354.84,-31.38 62.38,0.35 182.35,-1.57 221.22,-30.95 68.17,-51.55 68.23,-185.63 66.2,-260.5 -4.5,-166.13 -21.62,-332.21 -24.33,-497.96 -2.11,-129.59 5.83,-268.21 65.8,-386.36 27.06,-53.31 63.28,-99.78 108.11,-140.08 252.87,-227.35 689.96,-252.37 1019.14,-255.68 148.12,-354.49 381.34,-727 646.52,-1028 -13.16,3.72 -26.19,7.58 -38.98,11.37 -54.48,16.12 -108.62,33.42 -162.86,50.29 -83.61,25.99 -173.94,54.95 -259.2,69.98 -33.8,7.15 -67.97,7.19 -101.65,-0.67 -200.72,-46.86 -297.68,-339.45 -327.78,-511.96 -10.43,-59.75 -16.6,-120.94 -17.47,-181.83 -42.97,20.39 -83.66,27.38 -139.4,28.96 -88.32,30.69 -185.13,25.89 -264,-26.6 -129.68,-86.3 -144.36,-246.43 -96.46,-381.11 -36.16,-333.81 200.62,-356.84 461.79,-284.31 -2.62,-118.75 7.6,-287.04 123.58,-340.68 46.21,-39.65 71.01,-124.61 83.68,-180.06l14.87 -65.08 37.38 55.84c53.64,80.15 75.64,226.06 57.48,322.2 57.37,226.73 68.43,423.17 -15.91,645.47 34.83,149.34 111.6,223.76 210.01,336.54 21.51,24.66 57.21,60.84 94.04,58.04 53.42,-4.05 132.35,-101.41 165.97,-138.32 91.41,-100.3 181.21,-186.28 304.51,-249.8 53.16,-27.4 84.98,-60.89 127.56,-100.18 39.54,-36.49 76.77,-62.52 128.47,-80.97 69.06,-24.64 149.63,-30.31 223.91,-29.91 55.54,-207.84 72.07,-375.88 72.32,-590 -144.09,-6.57 -354.6,-67.02 -417.17,-208.95 -13.07,-29.64 -18.28,-61.56 -13.4,-93.58 17.39,-114.1 144.98,-180.12 249.91,-208.36 17.31,-43.74 31.47,-82.43 64.36,-113.26 -32.79,-49.15 -47.24,-85.34 -58.18,-121.38 -23.87,45.9 -46.91,118.41 -62.64,157.1l-16.08 39.55 -30.99 -29.97c-49.99,-48.36 -95.5,-99.58 -113.43,-162.28 -18.48,45.61 -21.56,100.49 -27.98,145.48l-7.32 51.29 -40.1 -33.95c-71.55,-60.59 -132.67,-132.75 -145.82,-225.52 -287.43,-35.15 -268.05,-347.13 -241.58,-565.79 11.22,-92.78 36.29,-200.7 134.68,-239.88 95.75,-38.12 179.81,-4.4 261.04,-95.16l477.01 -532.98c208.05,-232.48 426.17,-378.43 613.09,-72.64zm1631.45 5192.28l0.01 0.01 0 -0.01 -0.01 0zm1551.2 2540.37l0.05 0.05 0.01 -0.05 -0.06 0zm236.86 321.13l0.01 0.02 0.01 -0.02 -0.02 0zm98.32 371.37l0 0.04 0.02 -0.01 -0.02 -0.03zm-53.42 293.02l-0.02 0.05 0.06 0 -0.04 -0.05zm-391.63 553.52l-0.01 0 0.01 0.01 0 -0.01zm-1360.6 52.78c1.28,13.23 1.67,25.43 1.08,37.12 114.24,-103.94 220.4,-235.57 290.05,-366.28 -107.75,-213.12 -322.61,-497.77 -581.55,-537.19l-2.78 318.34c59.74,51.51 116.07,114.65 163.75,176.05 56.65,72.92 201.81,274.86 129.45,371.96z"/>
     <path class="fil4" d="M8541.36 21492.23c24.8,16.14 37.49,49.47 39,84.86l168.59 -123.66c5.97,-27.48 3.59,-48.76 0.88,-69.42 -102.23,-69.87 -199.58,-56.89 -208.47,108.22zm-1748.72 -110.3c-67.3,122.2 -53.47,231.08 22.8,354.14 38.85,-90.47 105.12,-181.93 170.94,-222.58 -10.26,-123.28 -77.66,-163 -193.74,-131.56zm807.26 234.67c3.62,122.74 -0.33,244.37 70.69,349.87 87.95,-52.42 148.26,-139.46 185.47,-255.48 -41.01,-135.32 -124.84,-170.37 -256.16,-94.39zm-174.73 -4166.51c-44.49,80.24 -90.82,161.4 -69.53,265.07 39.44,-53.7 58.93,-114.62 180.89,-169.21 -1.36,-66.82 -41.97,-95.36 -111.36,-95.86zm387.05 235.53c-0.4,107.88 14.14,203.64 42.32,288.3 36.29,-53.55 70.61,-141.94 102.17,-279.07 -46.84,-48.65 -95.07,-49.98 -144.49,-9.23zm436.95 57.01c71.75,50.96 140.27,121.06 186.47,230.75 4.97,-77.94 -3.27,-165.05 -29.19,-244.72l-0.47 0.61c-60.07,-31.06 -127.4,-31.82 -156.81,13.36zm-4965.8 919.91c-234.09,78.88 -158.67,294.56 -158.57,294.41 56.29,-54.7 135.21,-111.03 223.72,-127.03l0.01 0c18.55,-83.63 -1.55,-134.79 -65.16,-167.38zm247.81 351.85c-53.81,118.91 19.49,238.43 69.73,266.08 26.41,-63.6 50.19,-134.46 161.77,-183.3l-0.01 0c-65.12,-108.18 -133.23,-127.13 -231.49,-82.78zm1600.58 365.16c49.49,-192.99 -20.55,-340.68 -214.72,-441.31l-0.37 0.09c-83.4,64.28 -104.95,162.04 -74.99,287.69 109.65,-5.21 206.26,61.37 290.08,153.53zm-391.77 -4287.06c-38.02,116.03 -34.55,216.34 -2.34,305.77 119.01,-8.67 196.03,-57.53 233.84,-165.47 -56.8,-57.92 -148.68,-103.15 -231.5,-140.3zm104.47 -318.73c-36.72,82.81 -28.04,176.56 17.45,276.68 75.94,-9.42 154.33,-43.97 218.83,-94.26 -70.12,-83.88 -154.7,-135.72 -236.28,-182.42zm257.42 -245.23c12.41,-58.28 11.76,-212.15 -52.12,-307.59 -22.51,98.51 -54.57,164.37 -96.15,197.86 44.14,76.15 93.15,115.79 148.27,109.73zm2100.14 -2206.35c-82.82,39.91 -164.72,143.97 -247.53,330.92 182.26,-5.92 408.69,24.34 505.6,-84.15 45.27,-50.69 78.98,-156.33 88.48,-239.87 -80.03,-35.54 -191.07,-44.9 -346.55,-6.9zm-918.94 1569.12l80.17 -16.27 -20.01 238.95c46.45,14.94 103.39,21.41 164.43,20.48l-57.14 -193.98 -107.29 173.5c-85.93,-27.62 -121.26,-123.65 -60.16,-222.68zm224.59 243.16l93.92 -213.61 97.19 189.25c-63.53,14.94 -129.43,23.42 -191.11,24.36zm191.13 -24.36l43.76 -231.78 156.75 155.94c63.32,-36.4 122.67,-74.56 178.88,-115.66l-171.15 -86.1 -7.73 201.76c-56.96,32.75 -127.16,58.59 -200.51,75.84zm379.41 -191.51l-6.69 -197.34 154.37 75.23c-46.88,43.88 -95.93,84.25 -147.68,122.11zm147.69 -122.13l-10.03 -176.63 139.33 40.03c-41.45,49.32 -84.38,94.57 -129.3,136.6zm129.32 -136.62l-8.44 -144.72 105.52 17.74c-31.58,45.23 -63.84,87.43 -97.08,126.98zm181.55 -258.1l-82.58 -1.15 -1.86 132.21c28.66,-41.07 56.75,-84.63 84.44,-131.06zm-1683.47 177.53c15.7,87.04 78.48,152.19 134.81,199.9 9.79,-68.55 13.71,-132.9 44.96,-182.84 -61.18,-3.99 -121.47,-9.81 -179.77,-17.06zm213.06 19.04c7.66,74.2 59.58,130.88 111.99,181.57 31.32,-77.02 48.59,-134.89 78.76,-177.96 -63.54,1.15 -127.51,-0.21 -190.75,-3.61zm426.12 -13.61c-68.16,9.24 -138.76,14.56 -210.1,16.63 17.27,57.77 52.29,125.83 85.05,174.76 46.43,-47.53 94.62,-140.75 125.05,-191.39zm29.2 -4.22l81.42 180.66 117.42 -226.65c-62.19,20.16 -129.08,35.22 -198.84,45.99zm198.86 -45.99l101.13 134.5 73.37 -208.07 92.02 104.44 49.11 -175.12 86.75 82.99 30.22 -146.91 101.8 93.42 35.52 -175.38 90.35 77.68 30.94 -156.86 90.28 61.42 17.22 -137.39 -0.01 -0.02c-35.38,25.96 -71.18,51.27 -107.49,75.99l0 0 0 0c-39.82,27.11 -80.22,53.48 -121.29,79.18l0 0c-44.94,28.12 -90.69,55.4 -137.32,81.94l0 0.02 -0.02 0c-38.36,21.8 -77.31,43.12 -116.95,63.92 -46.09,24.21 -93.13,47.76 -141.13,70.68l0 0c-26.53,12.67 -53.36,25.15 -80.52,37.46 -29.83,13.5 -61.24,25.51 -93.98,36.11z"/>
     <path class="fil5" d="M4898.87 18929.11l-13.96 -192.29c-121.99,-57.58 -240.03,-131.92 -339.68,-284.02l4.54 -33.16c97.11,128.99 205.66,228.69 332.55,281.52 201.99,69.46 379.29,87.97 537.72,72.22l-0.34 -0.34c-389.07,-480.4 -510.77,-1059.23 -314.01,-1755.35l0.07 -0.05c-480.9,6.02 -795.11,71.58 -991.49,248.14 -236.79,212.89 -152.82,542.28 -140.33,1003.02 8.45,311.31 -105.95,328.69 -343.36,319.97 -138.9,-5.09 -313.04,-42.84 -327.21,67.57 62.22,29.25 81.1,88 64.59,170.76 88.23,50.92 228.94,-97.92 384.9,-104.8 -19.85,147.02 -268.77,117.47 -210.85,271.07 107.35,-57.02 178.93,-0.43 237.78,96.75 82.08,4.1 84.4,-107.96 243.18,-162.41 185.72,-51.2 283.88,-46.65 427.12,-5.23 205.57,59.46 281.32,296.42 373.78,304.99 -28.13,-126.22 -19.05,-233.7 75,-298.36zm-188.5 -3836.32c-113.17,-0.97 -226.42,-26.03 -328.43,-69.58 -99.79,268.13 102.14,457.49 325.67,376.43 -29.51,-99.8 -31.17,-201.87 2.76,-306.85zm108.37 -326.75c-289.28,-83.87 -455.45,-31.47 -439.96,221.88 159.13,67.03 308.34,96.46 461.96,66.94 -50.11,-75.1 -58.26,-204.81 -22.04,-288.78l0.04 -0.04zm2465.23 3000.91c-457.38,583.78 -53.91,1190.44 -11.7,1777.58 41.47,576.83 115.44,990.03 -71.03,1231.82 -140.98,182.78 -387.12,376.02 -407.37,572.27 126.37,-27.45 197.71,19 221.78,156.57 144.05,-54.52 218.39,-289.24 372.68,-364.11 195.61,-94.89 318.99,-19.79 208.47,230.51 -24.06,54.5 -50.81,156.01 -10.9,225.31 149.83,-86.88 238.45,-49.18 291.97,110.46 220.5,-46.82 158.44,-363.27 188.65,-475.08 282.37,-34.23 302.29,267.89 445.79,264.46 12.71,-179.04 104.28,-241.18 253.44,-138.02 40.21,-113.05 -168.29,-384.58 -308.03,-501.19l3.15 -362.5c15.58,-989.5 817.27,-2137.88 88.52,-2842.93l14.95 -22.76c591.1,538.87 225.34,1408.07 27.6,2219.26 566.87,491.53 714.47,846.84 581.78,1111.09 -37.99,75.71 -134.19,218.53 -184.59,286.97 -79.16,107.46 -172.39,203.14 -263.18,266.96 -332.46,233.67 -665.03,589.47 -664.11,1011.95 0.93,439.05 320.92,595.92 312.81,287.08 -9.18,-349.06 46.7,-545.23 260.14,-699.05 604.22,-435.43 1423.08,-417.11 1840.51,-1268.85 195.99,-399.89 27.03,-816.34 -397.56,-1162.61 -364.65,-297.38 -644.77,-590.04 -860.35,-1070.49 -258.99,-577.11 -425.15,-1157.05 -792.83,-1857.65 -173.43,264.68 -216.4,487.87 -119.27,672.7 47.05,89.5 162.31,166.08 116.99,280.82 47.75,119.66 46.78,254.5 21.72,332.81 -47.32,-109.08 -108.19,-209.35 -213.39,-280.82 -118.29,-18.95 -128.6,-296.57 -189.06,-431.79 -66.08,87.44 -6.66,358.59 -68.69,391.25 -26.45,126.03 -71.03,231.89 -123.62,303.92 -30.19,-73.5 -60.38,-154 -62.98,-329.3 -70.1,-102.2 44.13,-264.32 28.24,-422.9 -121.39,51.23 -163.26,289.16 -277.42,301.61 -83.88,40.27 -146.71,111.4 -192.06,208.02 -24.35,-124.09 -24.61,-208.86 60.76,-346.07 44.4,-134.96 298.67,-350.95 458.71,-500.02 74.66,-205.84 190.73,-368.56 174.07,-578.77 -17.06,-215.17 -176.91,-422.87 -405.46,-572.03 -189.41,-123.62 -288.34,-329.02 -281.38,-660.94l25.32 -25.47c6.23,350.26 88.34,547.65 320.23,689.73 178.88,109.6 406.5,394.5 374.44,646.22 -26.33,206.8 -134.57,378.11 -181.38,513.91 -147.55,159.63 -402.26,345.36 -458.19,482.64 85.43,-0.74 123.41,38.36 122.8,109.8l-0.65 1.53c84.33,-37.68 139.92,-254.79 268.79,-297.2 46.61,152.13 -81.28,331.35 -24.48,424.75 58.06,-49.95 115,-51.73 170.48,12.89 38.54,-70.73 -21.5,-343.3 80.44,-387.2 67.19,124.93 87.9,417.02 178.31,433.98 45.33,-50.59 102.7,-55.87 170.06,-23.7 36.77,-119.81 -86.77,-190.15 -126.88,-275.44 -34.91,-74.26 -57.35,-158.41 -47.81,-250.41 14.88,-142.98 65.7,-286.44 187.54,-450.74 220.15,-378.13 238.63,-473.51 27.15,-793.28l-399.52 -604.05c-126.5,-191.28 -287.19,-331.55 -466.92,-415.48l13.81 -22.54c189.29,80.95 331.87,214.42 453.33,392.62l-0.08 13.12c3.56,-619.92 69,-1369.09 191.72,-2181.26 3.83,-25.47 6.98,-50.38 9.43,-74.74 -81.33,182.83 -157.34,296.8 -243.26,405.95l-5.89 -43.11c70.64,-91.62 144.22,-220.29 219.74,-373.9 36.99,-75.22 38.98,-78.24 34.48,-163.41 -10.34,-195.22 -80.04,-340.36 -213.48,-420.91 -118.1,-71.31 -209.53,-197.16 -289.53,-314.45 -176.53,-258.82 -369.46,-319.63 -680.8,-18.45 -380.06,262.29 -657.79,624.43 -986.68,936.64l-23.08 -25.31c406.12,-393.93 662.22,-742.5 993.33,-939.89 -138.54,-230.26 -301.42,-223.96 -568.22,74.15l-477.01 532.99c-149.46,167.01 -346.64,-28.78 -388.82,319.86 -39.67,327.79 3.08,521.61 239.44,536.76 306.24,16.32 582.63,45.68 888.67,-69.44 368.54,-138.65 771.21,-394.34 1112.06,-704.01l-8.94 49.49c-213.95,602.48 -458.56,936.63 -860.12,1210.75 -184.2,125.74 -569.82,199.42 -694.7,100.36 -74.69,-59.25 -100.02,-124.95 -41.25,-234.57 -155.51,48.63 -241.06,150.37 -194.07,256.97 49.62,112.51 201.07,183.89 419.76,193.18 1.18,229.63 -14.95,415.57 -79.32,645.21 -46.38,102.58 -139.86,292.26 -243.81,476.08 449.41,-103.38 607.09,281.86 555.43,945.71 -46.84,601.86 205.28,973.62 580.38,1348.13zm-88.96 -5472c117.11,-28.62 252.36,-41.67 365.51,8.57l18.99 8.43 -2.3 20.22c-8.99,79.06 -41.63,195.02 -95.39,255.23 -86.38,96.69 -262.23,94.14 -382.9,93.42 -47.77,-0.31 -95.71,-1.21 -143.47,0.34l-45.43 1.47 18.03 -40.66c51.48,-116.23 138.61,-285.91 261.22,-344.96l2.75 -1.33 2.99 -0.73zm-833.02 2701.82c-319.92,0.61 -299.3,125.74 -458.55,207.78 -346.8,178.7 -408.83,542.44 -599.91,323.46 -90.04,-103.17 -181.05,-188.23 -218.05,-356.81 83.61,-215.19 74.68,-402.89 23.07,-615.89 -80.59,3.27 -137.68,-33 -174.3,-126.24 -75.41,48.19 -94.05,166.83 -90.82,312.6 104.19,51.34 195.55,124.14 273.04,220.06 -71.91,65.88 -154.8,97.09 -242.02,114.65 -32.68,7.07 -54.64,10.91 -88.03,13.41 74.79,34.89 151.86,81.11 207.9,138.83 -22.16,63.13 -59.88,117.54 -113.15,150.3 -1.4,329.55 161.38,739.83 412.07,686.73 132.15,-23.31 351.27,-103.38 489.86,-139.37 226.89,-197.61 445.94,-656.42 578.89,-929.51zm441.28 444.72c86.51,-326.43 -15.35,-722.2 259.52,-979.26 -167.69,286.27 -173.01,652.83 -259.52,979.26zm-230.2 -2335.92c-36.42,168.45 -247.16,206.67 -284.79,0l284.79 0zm1545.51 7592.62c-156.68,-34.06 -311.36,-48.69 -462,-24.17l462 24.17zm112.73 106.22c-227.23,-49.39 -451.54,-70.62 -670.02,-35.03l670.02 35.03zm307.67 1455.62l-19.23 3.53c-6.8,9.18 -13.33,18.66 -19.54,28.4 -27.71,43.48 -47.86,91.19 -62.41,141.18l5.37 7.95 154.17 -44.03 -58.36 -137.03zm73.34 -92.48l165.76 30.95 9.41 -147.94 -3.01 -1.08c-45.35,27 -89.63,55.76 -132.56,86.7 -13.67,9.83 -26.9,20.04 -39.67,30.67l0.07 0.7zm290.82 -183.88l175.98 45.5 1.11 -128.28 -1.57 -1.17c-14.83,6.62 -29.62,13.31 -44.38,20.1 -44.24,20.35 -88.05,41.51 -131.14,63.85zm489.93 -212.83l-3.08 -2.32c-65.38,27.14 -131,53.89 -196.26,81.41l203.73 67.07 -4.39 -146.16zm119.54 -54.15l275.63 66.53 1.2 -199.23c-90.05,48.99 -182.88,92.02 -276.83,132.7zm381.39 -193.29l224.5 59.03 -22.2 -204.15c-62.29,51.95 -129.59,100.11 -202.3,145.12zm298.7 -232.54l228.38 -10.35 -61.29 -185.41c-50.52,70.56 -106.06,135.54 -167.09,195.76zm238.07 -303.43l166.85 -43.74 -86.57 -107.42c-3.14,6.85 -6.39,13.71 -9.75,20.58 -22.18,45.23 -45.69,88.55 -70.63,130.13l0.1 0.45zm82.57 -813.99l-0.95 1.73c31.42,71.32 53.81,145.28 65.03,221.28l3.62 5.37 109.61 -201.72 -177.31 -26.66zm-61.04 -114.08l62.83 -275.8 -223.51 55.53 -0.96 4.73c61.59,67.75 116.44,139.83 161.64,215.54zm-243.54 -303.02l33.6 -215.56 -231.63 48.71c27.83,23.66 56.32,47.33 85.49,71.11 37.53,30.62 73.97,62.63 108.96,95.92l3.58 -0.18zm-287.08 -244.56l27.25 -275.39 -213.44 96.03c58.41,60.95 120.35,120.35 186.19,179.36zm-284.88 -287.92l33.64 -242.48 -197.3 18.12 -2.49 8.65c51.8,75.62 107.03,147.03 166.15,215.71zm-230.14 -320.71l78.05 -179.29 -153.03 34.35 -5.68 10.54c24.5,46.12 49.88,90.58 76.16,133.59l4.5 0.81zm-125.91 -250.02l131.14 -234.11 -240.68 -17.68 -5.99 17.72c25.46,60.74 51.58,121.23 78.56,181.36 6.52,14.54 13.13,28.9 19.78,43.14l17.19 9.57zm-365.13 -897.72l-7.18 14.34c25.62,65.65 51.02,131.37 76.5,197.09l8.35 4.24 145.23 -225.58 -222.9 9.91zm-51.06 -123.71l132.07 -332.65 -269.99 7.66 -4.37 7.05c37.4,86.48 73.64,173.54 109,261.19l17.55 43.73 15.74 13.02zm-190.72 -428.08l120.05 -245.46 -218.67 18.28 -3.81 6.18c35.2,73.24 69.29,146.88 102.43,221zm-155.7 -329.72l86.35 -219.86 -108.91 -16.09c-17.7,31.75 -35.53,62.14 -52.08,90.49 25.46,48.3 50.32,96.78 74.64,145.46zm-433.83 -2118.84l155.58 -89.91 -144.73 -86.43c-4,58.76 -7.63,117.54 -10.85,176.34zm-11.66 265.69l151.37 -109.91 -145.04 -50.76c-2.5,53.55 -4.58,107.1 -6.33,160.67zm7.19 110.64l-10.4 8.61c-1.13,52.49 -1.83,104.96 -2.12,157.41l42.13 58.84 116.56 -166.85 -146.17 -58.01zm2477.28 5580.09l149.53 -104.71 -122.1 -61.07c-2.84,54.51 -11.74,109.84 -27.43,165.78zm-1436.02 -2415.14l170.13 -211.18 -245.63 -5.11 -7.47 23.6c24.84,63.48 49.91,126.84 75.49,190.01l7.48 2.68zm-699.82 4250.21l-7.66 2.95c-6.19,45.07 -9.27,90.74 -10.53,135.81l112.65 -97.05 -94.46 -41.71zm-305.19 -8079.43l191.08 -84.05 -189.27 -95.49 -1.19 13.53c-4.29,49.69 -8.39,99.41 -12.2,149.19l11.58 16.82zm11.3 -284.29l150.83 -70.91 -136.77 -72.3c-4.89,47.72 -9.57,95.45 -14.06,143.21zm30.85 -251l190.77 -89.28 -176.58 -83.36c-6.61,55.78 -12.96,111.62 -19.04,167.43l4.85 5.21zm39.03 -278.05l154.66 -53.44 -151.97 -62.27c-4.39,33.67 -8.7,67.34 -12.9,101.01l10.21 14.7zm21.14 -253.49l195.45 -131.43 -155.31 -93.04 -8.81 5.2c-10.83,73.01 -21.29,146.1 -31.33,219.27z"/>
     <path class="fil6" d="M7202.02 12322.18c-49.42,23.82 -98.51,70.48 -147.66,143.95 23.34,77.01 95.61,133.15 181.18,133.15 104.46,0 189.13,-83.64 189.13,-186.81 0,-43.27 -14.91,-83.08 -39.9,-114.74 -52.86,-0.03 -113.38,7.5 -182.75,24.45zm589.97 547.37c-78.46,69.06 -158.46,134.24 -240.75,195.93l-26.44 210.88 -93.14 -63.38 -32.1 162.63 -90.55 -77.86 -35.89 177.23 -101.94 -93.55 -30.49 148.18 -89.67 -85.82 -50.49 179.96 -94.58 -107.36 -74.95 212.51 -105.94 -140.87 -123.77 238.9 -94.63 -209.94c-34.73,59.78 -71.72,130.72 -118.39,178.46l-25.09 25.69 -19.89 -29.72c-2.06,-3.07 -4.12,-6.2 -6.17,-9.36 -18.86,21.25 -33.45,42.84 -45.41,78.81l103.38 -20.98 -13.15 157.13 78.05 -126.21 53.06 180.15 86.51 -196.78 86.48 168.36 38.24 -202.53 148.75 147.97 6.92 -180.71 167.85 84.45 -6.67 -196.67 153.28 74.69 -9.56 -168.11 139.28 40.03 -8.16 -140.21 108.03 18.15 1.79 -127.48 127.33 1.78c81.08,-140.04 159.09,-305.29 238.85,-504.32l0.02 -0.03z"/>
     <path class="fil7" d="M7247.75 12564.26c30.4,-76.73 34.57,-153.85 0,-232.72 -37.08,86.08 -36.57,163.55 0,232.72z"/>
     <path class="fil8" d="M8582.84 19886.36c-50.02,210.61 -87.49,416.88 -92.56,611.98 218.3,32.32 444.57,240.75 597.63,535.55l0 0c256.7,-299.42 -21.37,-720.04 -504.94,-1147.6l-0.13 0.07zm-3135.56 -1116.05c439.71,527.36 1086.01,805.75 1793.92,775.72l1.34 -2.39c-38.84,-572.77 -445.04,-1120.79 -21.42,-1781.08 -408.32,-390.24 -595.93,-823.3 -551.8,-1308.86 69.47,-764.32 -153.02,-1047.28 -543.02,-942.3 -97.23,168.72 -201.19,326.94 -282.96,401.31 -175.57,186.07 -330.43,407.5 -466.07,638.87 -171.17,291.91 -269.64,465.47 -312.27,820.87 -66.45,553.85 69.55,1015.91 382.28,1397.86zm2403.79 -4571.44c37.59,0 68.06,29.71 68.06,66.36 0,36.64 -30.47,66.35 -68.06,66.35 -37.6,0 -68.05,-29.71 -68.05,-66.35 0,-36.65 30.45,-66.36 68.05,-66.36zm-199.57 78.7c37.6,0 68.07,29.73 68.07,66.36 0,36.64 -30.47,66.35 -68.07,66.35 -37.59,0 -68.05,-29.71 -68.05,-66.35 0,-36.63 30.46,-66.36 68.05,-66.36zm123.43 202.41c37.59,0 68.06,29.71 68.06,66.34 0,36.66 -30.47,66.37 -68.06,66.37 -37.58,0 -68.05,-29.71 -68.05,-66.37 0,-36.63 30.47,-66.34 68.05,-66.34zm383.68 3778.29c45.95,0 83.19,36.31 83.19,81.1 0,44.78 -37.24,81.09 -83.19,81.09 -45.93,0 -83.17,-36.31 -83.17,-81.09 0,-44.79 37.24,-81.1 83.17,-81.1zm342.27 -83.74c45.93,0 83.17,36.32 83.17,81.09 0,44.8 -37.24,81.11 -83.17,81.11 -45.95,0 -83.19,-36.31 -83.19,-81.11 0,-44.77 37.24,-81.09 83.19,-81.09zm-122.72 334.95c45.93,0 83.18,36.31 83.18,81.11 0,44.77 -37.25,81.09 -83.18,81.09 -45.94,0 -83.19,-36.32 -83.19,-81.09 0,-44.8 37.25,-81.11 83.19,-81.11zm1778.16 1657.61c56.64,0 102.55,44.76 102.55,99.97 0,55.2 -45.91,99.96 -102.55,99.96 -56.63,0 -102.53,-44.76 -102.53,-99.96 0,-55.21 45.9,-99.97 102.53,-99.97zm-244.17 238.02c56.63,0 102.55,44.76 102.55,99.97 0,55.2 -45.92,99.96 -102.55,99.96 -56.63,0 -102.53,-44.76 -102.53,-99.96 0,-55.21 45.9,-99.97 102.53,-99.97zm359.61 64.92c56.63,0 102.54,44.76 102.54,99.96 0,55.2 -45.91,99.96 -102.54,99.96 -56.63,0 -102.53,-44.76 -102.53,-99.96 0,-55.2 45.9,-99.96 102.53,-99.96z"/>
     <g>
      <path class="fil0" d="M3136.79 18982.33c-255.59,223.82 -416.39,548.46 -416.39,909.73 0,675.23 561.56,1222.62 1254.28,1222.62 692.72,0 1254.29,-547.39 1254.29,-1222.62 0,-173.51 -37.17,-338.54 -104.03,-488.06 -89.82,-96.56 -187.94,-159.14 -303.72,-149.33 -118.36,-16.14 -154.51,-242.19 -372.58,-311.29 -137.54,-43.58 -275.81,-30.38 -412.53,3.33 -148.48,36.59 -166.97,165.53 -254.11,163.08 -106.03,43.48 -131.34,81.98 -175.94,200.91 -97.67,-88.15 -140.61,-192.59 -86.11,-318.56 -36.56,-172.37 185.46,-157.7 213.06,-252.5 -110.56,10.6 -280.85,155.97 -368.04,107.7 -79.9,17.92 -156.71,59.8 -228.18,134.99z"/>
      <path class="fil3" d="M3019.32 20684.18l208.72 -295.3 -48.16 -377.53 -207.3 -202.06 -251.33 37.93c0.57,-15.39 1.43,-30.71 2.59,-45.95l235.21 -35.5 110.35 -454.67 -88.08 -165.51c10.29,-12.99 20.84,-25.77 31.64,-38.34l85.2 160.09 382.39 9.56 59.65 -40.64c8.24,12.28 17.53,24.27 27.79,36l-35.71 24.32 32.69 332.23 343.41 217.86 396.79 -261.33 -1.55 -301.91 -384.87 -250.15 -68.91 46.96c19.77,-18.01 38.93,-41.92 63.43,-65.04l0.06 -0.08 1.48 -1.36 1.09 -1.02 0.46 -0.42 1.57 -1.45 1.59 -1.44 1.59 -1.43 0.02 -0.03 1.59 -1.39 1.09 -0.97 0.55 -0.46 1.64 -1.42 0.54 -0.47 1.12 -0.95 0.38 -0.32 3 -2.49 1.08 -0.9 0.63 -0.5 1.74 -1.39 1.74 -1.38 1.67 -1.31 0.1 -0.07 1.79 -1.37 1.08 -0.83 0.72 -0.53 1.83 -1.36 0.48 -0.35 1.37 -1 0.09 -0.07 1.77 -1.26 1.88 -1.32 1.09 -0.76 0.82 -0.56 1.93 -1.3 0.44 -0.3 1.51 -1.01 1.74 -1.14 0.23 -0.14 2 -1.27 2.01 -1.26 2.04 -1.26 0.39 -0.24 1.67 -0.99 1.77 -1.05 0.31 -0.18 2.11 -1.22 1.08 -0.61 1.05 -0.58 2.15 -1.19 0.36 -0.19 1.83 -0.98 1.8 -0.95 0.4 -0.2 2.24 -1.15 1.06 -0.54 1.2 -0.59 2.27 -1.1 0.3 -0.15 2.02 -0.95 1.83 -0.85 0.5 -0.23 2.36 -1.06 1.06 -0.47 1.33 -0.58 2.42 -1.03 0.23 -0.09 3.76 -1.54 0.31 -0.13 0.62 -0.24 2.5 -0.98 1.03 -0.39 0.46 -0.17 2.74 -1 0.86 -0.32 0.17 -0.06 0.97 -0.34c2.2,-0.79 4.45,-1.54 6.72,-2.28l1 -0.33 0.39 -0.12 3.76 -1.17 0.23 -0.08 0.09 -0.03 0.48 -0.14 3.56 -1.03 0.52 -0.15 0.87 -0.25 2.81 -0.77 0.97 -0.26 0.61 -0.16 4.12 -1.04 0.23 -0.06 0.24 -0.06 0.23 -0.06 0.24 -0.06 0.23 -0.06 0.24 -0.05 0.23 -0.06 0.24 -0.05 0.23 -0.06 0.24 -0.07 0.23 -0.05 0.23 -0.06 0.24 -0.05 0.24 -0.06 0.24 -0.06 0.23 -0.05 0.24 -0.06 0.23 -0.05 0.24 -0.07 0.23 -0.06 0.23 -0.05 0.24 -0.06 0.23 -0.05 0.24 -0.06 0.23 -0.06 0.24 -0.05 0.23 -0.06 0.08 -0.02 0.15 -0.04 0.24 -0.05 0.23 -0.06 0.24 -0.05 0.23 -0.06 0.24 -0.06 0.23 -0.05 0.23 -0.06 0.24 -0.05 0.23 -0.06 0.24 -0.06 0.23 -0.05 0.24 -0.06 0.23 -0.06 0.24 -0.05 0.23 -0.06 0.23 -0.05 0.24 -0.06 0.23 -0.06 0.24 -0.05 0.23 -0.06 0.24 -0.05 0.23 -0.06 0.24 -0.06 0.24 -0.05 0.24 -0.06 0.23 -0.06 0.14 -0.03 0.1 -0.02 0.23 -0.06 0.23 -0.05 0.24 -0.06 0.23 -0.05 0.24 -0.05 0.23 -0.06 0.24 -0.06 0.23 -0.05 0.24 -0.06c131.8,-30.93 264.87,-41.49 397.5,0.29 111,35.18 174.85,111.01 226.43,179.13l-325.27 158.7 1.61 312.83 366.45 352.15 359.18 -242.62 74.82 -234.29c49.84,131.76 77.11,274.15 77.11,422.78 0,42.04 -2.18,83.58 -6.43,124.52l-167.81 -243.17 -334.69 226.09 -188.9 382.78 102.83 169.36 364.86 46.39c-135.59,186.56 -323.49,334.38 -542.84,423.32l-66.88 -53.75 -595.75 -80.78 -168.4 179.64c-238.97,-67.52 -448.55,-202.44 -605.64,-382.28zm251.22 -327.06l403.89 94.48 252.2 -178.74 -23.81 -375.99 -332.22 -210.76 0.29 2.88 -345.88 311.22 45.53 356.91zm545.39 -1253.78l-170.16 115.93c28.99,-52.35 63.74,-79.76 136.23,-109.48 12.54,0.35 23.64,-2.03 33.93,-6.45zm-117.81 1387.15l92.39 349.2 559.91 71.96 247.87 -330.38 -107.15 -176.48 -540.84 -93.04 -252.18 178.74z"/>
     </g>
    </g>
    <path class="fil9" d="M10451.02 7602.58l0 577.45 -46.72 0c-35.56,-151.45 -101.09,-267.6 -197.42,-348.63 -96.33,-80.64 -205.48,-120.84 -327.44,-120.84 -101.71,0 -195.35,29.59 -280.32,89.6 -84.96,59.81 -147.18,137.99 -186.66,234.74 -131.92,322.72 -116.15,934.85 209.67,1131.54 148.26,89.48 341.38,93.74 531.62,-7.66 85.38,-45.92 175.3,-124.51 270.19,-236.98l0 143.29c-91.58,97.57 -186.88,168.41 -286.1,212.09 -318.3,141.13 -745.13,66.65 -997.83,-180.47 -277.32,-271.21 -303.75,-717.06 -115.98,-1045.07 81.45,-142.27 191.63,-252.7 330.34,-331.49 138.29,-78.18 285.27,-117.57 441.55,-117.57 114.73,0 235.87,25.51 363.62,75.93 74.22,30.01 121.14,44.7 140.78,44.7 26.04,0 48.16,-9.8 66.97,-29.18 19.23,-18.99 31.01,-49.61 37.01,-91.45l46.72 0zm-3994.13 139.45l0 672.16 33.51 0c107.74,0 185.47,-32.82 234.17,-98.46 48.12,-65.45 79.1,-161.78 92.34,-289.57l48.71 0 0 863.45 -48.71 0c-9.73,-94.19 -31.16,-171.29 -62.92,-230.91 -32.34,-60.4 -69.55,-100.61 -112.02,-121.19 -42.47,-20.78 -104.42,-31.26 -185.08,-31.26l0 463.95c0,90.51 3.51,145.67 11.5,166.26 7.98,20.38 22.79,36.89 44.62,49.71 21.81,13.01 56.69,19.42 104.8,19.42l101.12 0c158.19,0 285.2,-35.54 380.48,-106.43 95.26,-70.88 164.03,-179.45 205.33,-325.3l46.36 0 -76.17 523.97 -1462.3 0 0 -42.53 55.72 0c49.09,0 88.84,-8.54 118.64,-25.43 21.63,-11.66 38.19,-31.28 49.68,-58.86 8.77,-19.8 13.64,-71.26 13.64,-154.58l0 -1087.57c0,-75.16 -2.14,-121.19 -6.24,-138.47 -8.37,-28.74 -23.38,-50.69 -45.97,-66.03 -31.56,-22.72 -74.61,-34.38 -129.75,-34.38l-55.72 0 0 -42.33 1415.94 0 0 487.85 -48.9 0c-23.57,-119.44 -57.86,-204.9 -101.11,-256.94 -43.44,-51.66 -104.62,-89.91 -184.49,-114.38 -46.18,-14.57 -133.45,-22.15 -261.06,-22.15l-176.12 0zm-2304.89 -134.38l13.35 551.57 -53.42 0c-25.12,-137.99 -86.72,-248.92 -185.19,-333.19 -99.08,-84.07 -205.34,-126.11 -320.17,-126.11 -88.72,0 -158.68,22.15 -210.12,66.64 -51.83,44.09 -77.74,95.35 -77.74,152.96 0,36.3 9.37,69.1 27.51,97.61 24.72,37.72 65.18,75.86 121.01,112.97 40.86,26.87 134.76,74.64 282.28,142.92 206.73,94.94 346.27,184.95 418.04,269.23 71.57,84.68 106.85,181.05 106.85,290.13 0,138 -57.61,256.72 -172.44,356.17 -114.83,99.24 -260.95,149.27 -437.98,149.27 -55.61,0 -108.44,-5.33 -157.48,-15.58 -49.64,-10.66 -111.84,-30.55 -186.6,-59.87 -41.66,-16.21 -75.75,-24.4 -103.06,-24.4 -22.53,0 -46.06,8.4 -71.17,24.6 -25.51,16.82 -45.85,41.82 -61.4,75.25l-45.25 0 0 -623.95 45.25 0c38.27,175.11 111.84,309 220.48,400.86 109.25,92.27 226.27,138.41 352.66,138.41 96.88,0 174.63,-25.22 232.44,-74.64 57.62,-49.62 86.52,-106.83 86.52,-173.06 0,-38.76 -11.16,-76.48 -33.49,-113.18 -21.93,-36.5 -55.42,-71.15 -100.67,-104.57 -45.06,-33.01 -125,-75.46 -239.63,-128.57 -160.48,-73.61 -275.9,-136.76 -346.07,-188.84 -69.58,-52.09 -123.4,-110.32 -161.08,-174.3 -37.67,-64.59 -56.41,-135.32 -56.41,-212.21 0,-132.05 51.63,-244.21 154.89,-337.1 102.87,-92.88 233.25,-139.02 390.14,-139.02 57.41,0 112.63,6.15 166.45,19.07 40.87,10.05 90.51,27.89 148.92,54.13 58.61,26.04 99.68,39.17 123,39.17 22.72,0 40.47,-6.36 53.23,-19.27 12.95,-12.92 25.31,-44.1 36.28,-93.1l40.07 0z"/>
   </g>
   <g>
    <polygon class="fil10" points="6745.02,210.53 7151.86,1440.84 8476.14,1438.37 7403.27,2196.24 7814.92,3425.02 6745.02,2663.12 5675.17,3425.02 6086.81,2196.24 5013.93,1438.37 6338.23,1440.84 "/>
    <polygon class="fil11" points="8476.14,1438.37 6745.02,1934.87 6745.02,2663.12 7814.92,3425.02 6745.02,1934.87 5675.17,3425.02 6086.81,2196.24 6745.02,1934.87 5013.93,1438.37 6338.23,1440.84 6745.02,1934.87 6745.02,210.53 7151.86,1440.84 6745.02,1934.87 7403.27,2196.24 "/>
   </g>
   <g>
    <g>
     <polygon class="fil12" points="2645.67,1934.3 2998.92,3002.58 4148.79,3000.43 3217.23,3658.49 3574.66,4725.44 2645.67,4063.88 1716.71,4725.44 2074.14,3658.49 1142.56,3000.43 2292.44,3002.58 "/>
     <polygon class="fil13" points="4148.79,3000.43 2645.67,3431.55 2645.67,4063.88 3574.66,4725.44 2645.67,3431.55 1716.71,4725.44 2074.14,3658.49 2645.67,3431.55 1142.56,3000.43 2292.44,3002.58 2645.67,3431.55 2645.67,1934.3 2998.92,3002.58 2645.67,3431.55 3217.23,3658.49 "/>
    </g>
    <g>
     <polygon class="fil12" points="10844.39,1934.3 11197.65,3002.58 12347.52,3000.43 11415.95,3658.49 11773.38,4725.44 10844.39,4063.88 9915.44,4725.44 10272.87,3658.49 9341.29,3000.43 10491.17,3002.58 "/>
     <polygon class="fil13" points="12347.52,3000.43 10844.39,3431.55 10844.39,4063.88 11773.38,4725.44 10844.39,3431.55 9915.44,4725.44 10272.87,3658.49 10844.39,3431.55 9341.29,3000.43 10491.17,3002.58 10844.39,3431.55 10844.39,1934.3 11197.65,3002.58 10844.39,3431.55 11415.95,3658.49 "/>
    </g>
   </g>
  </g>
 </g>
</svg>
