<?xml version="1.0" encoding="UTF-8" standalone="no"?>
<!-- Created with Inkscape (http://www.inkscape.org/) -->

<svg
   version="1.1"
   id="svg1"
   width="258.66666"
   height="258.66666"
   viewBox="0 0 258.66666 258.66666"
   sodipodi:docname="tuna-luso-brasileira-seeklogo.eps"
   xmlns:inkscape="http://www.inkscape.org/namespaces/inkscape"
   xmlns:sodipodi="http://sodipodi.sourceforge.net/DTD/sodipodi-0.dtd"
   xmlns="http://www.w3.org/2000/svg"
   xmlns:svg="http://www.w3.org/2000/svg">
  <defs
     id="defs1" />
  <sodipodi:namedview
     id="namedview1"
     pagecolor="#ffffff"
     bordercolor="#000000"
     borderopacity="0.25"
     inkscape:showpageshadow="2"
     inkscape:pageopacity="0.0"
     inkscape:pagecheckerboard="0"
     inkscape:deskcolor="#d1d1d1">
    <inkscape:page
       x="0"
       y="0"
       inkscape:label="1"
       id="page1"
       width="258.66666"
       height="258.66666"
       margin="0"
       bleed="0" />
  </sodipodi:namedview>
  <g
     id="g1"
     inkscape:groupmode="layer"
     inkscape:label="1">
    <path
       id="path1"
       d="M 2.59766,1933.23 H 1930.16 V 5.66797 H 2.59766 V 1933.23"
       style="fill:#ffffff;fill-opacity:1;fill-rule:evenodd;stroke:none"
       transform="matrix(0.13333333,0,0,-0.13333333,0,258.66667)" />
    <path
       id="path2"
       d="m 1015.09,92.4609 c 205.52,23.0471 368.52,194.9061 382.69,400.4061 1.78,0 1.78,0 3.53,0 196.66,0 356.1,162.969 356.1,356.098 0,162.995 -111.6,304.715 -262.21,343.695 17.73,37.2 28.35,81.51 28.35,124.02 0,154.15 -125.77,279.92 -278.14,279.92 -3.53,0 -5.31,0 -7.09,0 -8.84,125.79 -106.31,232.08 -232.08,249.81 -14.177,1.78 -30.135,1.78 -42.533,1.78 -141.727,0 -258.652,-113.4 -267.496,-251.59 0,0 -5.336,0 -7.113,0 -152.348,0 -276.364,-125.77 -276.364,-276.39 0,-46.04 8.864,-90.35 28.329,-127.55 -150.571,-38.98 -265.719,-178.93 -265.719,-343.695 0,-193.129 161.191,-356.098 356.07,-356.098 1.777,0 1.777,0 5.336,0 12.398,-221.457 200.191,-402.16 426.957,-402.16 17.738,0 33.668,1.7539 51.383,1.7539"
       style="fill:#00a650;fill-opacity:1;fill-rule:evenodd;stroke:none"
       transform="matrix(0.13333333,0,0,-0.13333333,0,258.66667)" />
    <path
       id="path3"
       d="m 1199.35,267.855 c 63.77,62.02 97.44,124.016 115.15,210.836 l 10.64,97.438 c 40.73,0 83.27,0 124.02,5.312 210.83,56.711 292.32,285.231 148.81,455.309 -63.8,63.78 -122.24,77.96 -210.83,104.54 37.22,90.35 72.64,150.59 37.22,248.03 -51.38,111.62 -143.5,120.48 -256.9,120.48 -3.54,40.76 -5.31,79.74 -17.71,116.93 -62.02,177.15 -290.57,171.84 -363.187,5.31 -12.399,-35.44 -15.958,-81.48 -19.512,-118.7 -99.196,0 -171.836,-3.54 -237.391,-88.6 -65.551,-102.75 -28.355,-178.93 26.578,-281.68 C 457.02,1114.71 387.91,1100.53 324.137,1020.8 240.875,918.047 247.961,779.879 329.469,678.879 387.91,608.016 453.465,581.441 542.059,576.129 h 67.308 C 620.012,478.691 628.879,406.051 682.035,324.563 816.672,154.484 1034.6,133.215 1199.35,267.855"
       style="fill:#ffffff;fill-opacity:1;fill-rule:evenodd;stroke:none"
       transform="matrix(0.13333333,0,0,-0.13333333,0,258.66667)" />
    <path
       id="path4"
       d="M 1107.21,1355.65 H 869.801 v 47.85 h 28.355 c 3.555,0 7.09,1.78 8.867,5.31 3.532,1.78 5.309,8.87 5.309,14.17 v 42.51 c 0,15.96 -7.086,26.58 -15.957,31.92 3.559,3.53 8.871,7.06 10.648,12.39 3.532,5.32 5.309,12.4 5.309,19.47 v 35.44 c 0,8.87 0,15.93 -1.777,17.71 -3.532,3.56 -8.844,5.34 -15.93,5.34 h -24.824 v 47.81 h 168.329 v -47.81 h -21.27 c -7.09,0 -12.4,-1.78 -14.17,-5.34 -3.538,-1.78 -5.315,-8.84 -5.315,-17.71 v -35.44 c 0,-7.07 1.777,-14.15 3.535,-17.69 3.55,-5.33 8.86,-10.64 14.18,-14.17 -10.63,-5.34 -17.715,-15.96 -17.715,-31.92 v -61.99 h 17.715 c 7.08,0 15.95,3.55 21.26,10.62 5.31,7.09 8.86,17.73 8.86,28.35 v 33.67 h 62 v -120.49"
       style="fill:#00a650;fill-opacity:1;fill-rule:evenodd;stroke:none"
       transform="matrix(0.13333333,0,0,-0.13333333,0,258.66667)" />
    <path
       id="path5"
       d="M 444.621,872.008 382.625,870.23 V 983.602 H 623.543 V 870.23 h -61.996 v 46.04 c 0,5.335 -1.777,12.421 -3.555,14.179 -3.531,3.555 -7.066,5.336 -8.844,5.336 h -7.089 v -58.492 c 0,-7.063 1.757,-14.152 5.312,-17.684 1.777,-3.554 5.336,-8.871 10.621,-12.398 -8.844,-5.336 -15.933,-15.957 -15.933,-31.914 v -44.285 c 0,-5.313 1.757,-10.645 5.312,-14.18 1.777,-1.75 5.336,-5.309 8.867,-5.309 h 23.02 V 705.461 H 426.887 v 46.062 h 23.043 c 3.535,0 7.09,3.559 10.644,5.309 1.754,3.535 3.535,8.867 3.535,14.18 v 44.285 c 0,15.957 -5.312,26.578 -17.711,31.914 5.309,3.527 10.622,7.062 14.176,12.398 1.754,3.532 3.535,10.621 3.535,17.684 v 58.492 h -7.089 c -3.555,0 -7.09,-1.781 -8.844,-3.558 -1.778,-3.536 -3.555,-8.844 -3.555,-14.18 v -46.039"
       style="fill:#00a650;fill-opacity:1;fill-rule:evenodd;stroke:none"
       transform="matrix(0.13333333,0,0,-0.13333333,0,258.66667)" />
    <path
       id="path6"
       d="m 1103.68,388.34 h 31.89 v -44.309 c 0,-3.535 0,-5.289 1.78,-7.066 0,-3.555 1.78,-3.555 3.53,-3.555 3.53,0 5.31,0 5.31,3.555 0,1.777 1.78,3.531 1.78,7.066 v 42.532 c 0,5.308 -1.78,7.085 -1.78,8.843 -1.78,1.778 -3.53,3.555 -7.06,3.555 h -10.65 v 24.801 h 10.65 c 3.53,0 5.28,1.777 7.06,1.777 0,1.774 1.78,5.309 1.78,8.844 v 28.355 c 0,3.551 -1.78,7.086 -1.78,8.867 0,1.754 -1.78,3.532 -5.31,3.532 -3.53,0 -5.31,-3.532 -5.31,-10.621 v -30.133 h -31.89 v 30.133 c 0,5.308 0,8.843 0,12.398 0,1.777 0,5.332 1.76,8.863 1.77,3.536 3.55,5.313 5.33,8.868 3.53,1.757 5.31,3.531 8.84,5.289 5.34,0 12.4,0 23.05,0 5.31,0 8.86,0 12.4,0 3.53,0 7.09,0 8.86,-1.758 3.54,-1.774 7.07,-3.531 8.85,-5.309 1.78,-1.777 3.55,-3.554 5.33,-7.09 0,-3.531 1.76,-5.308 1.76,-8.863 0,-1.777 0,-5.309 0,-8.844 v -30.132 c 0,-7.09 -1.76,-12.399 -3.54,-15.954 -1.77,-3.535 -5.33,-7.07 -10.64,-10.625 5.31,-3.531 8.87,-7.066 10.64,-10.621 1.78,-3.554 3.54,-8.867 3.54,-15.953 v -46.043 c 0,-8.867 -1.76,-15.957 -3.54,-19.512 -1.77,-5.308 -5.33,-7.066 -10.64,-10.621 -5.31,-1.777 -10.62,-1.777 -19.49,-1.777 -10.62,0 -17.71,0 -24.8,1.777 -5.31,1.778 -10.62,3.555 -14.18,8.844 -1.77,5.332 -3.53,10.645 -3.53,21.289 v 49.598"
       style="fill:#00a650;fill-opacity:1;fill-rule:evenodd;stroke:none"
       transform="matrix(0.13333333,0,0,-0.13333333,0,258.66667)" />
    <path
       id="path7"
       d="m 770.605,306.832 v 141.727 h -17.734 v 26.578 c 14.18,1.777 23.047,10.64 24.824,24.797 h 26.551 V 306.832 h -33.641"
       style="fill:#00a650;fill-opacity:1;fill-rule:evenodd;stroke:none"
       transform="matrix(0.13333333,0,0,-0.13333333,0,258.66667)" />
    <path
       id="path8"
       d="m 1505.84,705.461 h -209.05 v 46.062 h 28.35 c 3.53,0 7.09,1.778 8.87,5.309 3.53,1.781 5.28,8.867 5.28,14.18 v 44.285 c 0,7.09 -1.75,14.18 -3.53,19.488 -3.53,3.531 -7.09,8.867 -12.4,12.426 10.65,3.527 15.93,14.152 15.93,28.328 v 37.199 c 0,10.645 -1.75,15.953 -3.53,19.489 -1.75,1.777 -7.09,5.336 -14.15,5.336 h -24.82 v 46.039 h 200.18 c 17.74,0 33.67,-5.309 46.09,-12.399 10.62,-8.844 19.47,-21.242 23.02,-37.199 5.31,-15.957 8.85,-26.578 14.18,-30.133 -1.78,0 -3.55,-3.535 -3.55,-3.535 -1.78,-1.75 -3.56,-7.086 -5.32,-10.617 -1.77,-5.313 -5.31,-10.645 -7.08,-19.489 -1.78,-7.089 -8.85,-14.175 -15.96,-19.492 -7.06,-5.308 -21.24,-7.086 -35.42,-7.086 v -3.554 c 14.18,0 28.36,-3.532 35.42,-8.844 10.65,-5.336 17.73,-15.957 21.27,-28.356 3.53,-12.398 8.86,-19.484 14.17,-21.242 -1.75,0 -3.53,-3.554 -5.31,-7.113 -1.77,-1.754 -5.33,-10.621 -7.09,-24.797 -5.31,-12.402 -12.39,-24.801 -23.04,-31.887 -10.62,-7.089 -24.8,-12.398 -42.51,-12.398 v 0 z m -53.15,109.836 h -28.33 v -63.774 h 31.86 c 7.11,0 14.18,3.559 17.74,7.09 5.31,5.309 7.08,14.176 7.08,26.575 0,8.871 -1.77,17.71 -7.08,23.046 -5.34,5.286 -14.18,7.063 -21.27,7.063 z m 0,118.707 h -28.33 v -65.551 h 31.86 c 7.11,0 14.18,3.555 17.74,7.086 5.31,5.313 7.08,14.18 7.08,26.578 0,10.621 -1.77,17.711 -7.08,23.047 -5.34,5.285 -14.18,8.84 -21.27,8.84"
       style="fill:#00a650;fill-opacity:1;fill-rule:evenodd;stroke:none"
       transform="matrix(0.13333333,0,0,-0.13333333,0,258.66667)" />
    <path
       id="path9"
       d="m 977.887,338.742 v 123.996 c 0,8.867 0,15.953 0,21.266 1.777,5.309 3.558,8.863 8.843,10.641 1.774,3.531 5.333,3.531 10.645,5.289 5.315,0 12.395,0 21.265,0 10.62,0 17.71,0 23.02,-1.758 5.34,-3.531 8.87,-7.086 10.63,-12.399 1.77,-5.308 1.77,-12.418 1.77,-23.039 V 338.742 c 0,-12.398 -1.77,-19.512 -7.06,-24.82 -3.56,-3.535 -8.87,-5.313 -12.4,-5.313 -5.34,-1.777 -12.43,-1.777 -19.51,-1.777 -8.85,0 -15.938,0 -19.473,1.777 -5.328,0 -8.887,1.778 -12.422,5.313 -1.75,3.531 -3.531,7.086 -5.308,10.641 0,3.535 0,7.066 0,14.179 z m 44.283,5.289 v 122.258 c 0,5.316 -1.75,8.848 -7.08,8.848 -3.54,0 -5.32,-3.532 -5.32,-8.848 V 344.031 c 0,-7.066 1.78,-10.621 5.32,-10.621 5.33,0 7.08,3.555 7.08,10.621"
       style="fill:#00a650;fill-opacity:1;fill-rule:evenodd;stroke:none"
       transform="matrix(0.13333333,0,0,-0.13333333,0,258.66667)" />
    <path
       id="path10"
       d="m 852.117,374.164 h 31.86 v -30.133 c 0,-3.535 1.781,-5.289 1.781,-7.066 0,-3.555 1.777,-3.555 5.336,-3.555 1.75,0 3.531,0 3.531,3.555 1.75,1.777 1.75,3.531 1.75,7.066 v 46.086 c -5.281,-5.332 -12.398,-7.109 -19.461,-7.109 -7.113,0 -14.18,3.555 -17.734,8.863 -5.313,3.535 -7.063,12.422 -7.063,21.266 v 54.933 c 0,7.067 0,10.621 1.75,15.934 0,3.531 1.781,5.309 5.313,8.863 3.554,3.535 7.09,5.309 10.621,7.067 5.336,0 15.957,0 28.355,0 10.621,0 19.512,-1.758 24.797,-7.067 1.777,-3.554 3.559,-7.09 5.336,-10.621 0,-3.555 0,-7.109 0,-14.176 V 335.188 c 0,-8.844 -1.777,-15.958 -7.09,-21.266 -3.531,-3.535 -7.086,-5.313 -12.422,-5.313 -3.531,-1.777 -10.621,-1.777 -17.683,-1.777 h -7.117 c -10.622,0 -19.461,1.777 -24.797,7.09 -5.313,5.308 -7.063,12.422 -7.063,21.266 v 38.976 z m 44.258,44.285 v 47.84 c 0,5.316 -1.75,8.848 -5.281,8.848 -3.559,0 -7.117,-3.532 -7.117,-8.848 v -47.84 c 0,-7.09 3.558,-8.867 7.117,-8.867 3.531,0 5.281,1.777 5.281,8.867"
       style="fill:#00a650;fill-opacity:1;fill-rule:evenodd;stroke:none"
       transform="matrix(0.13333333,0,0,-0.13333333,0,258.66667)" />
    <path
       id="path11"
       d="m 697.965,632.816 177.172,143.504 8.84,-8.84 -143.504,-186.039 h 444.687 l -143.5,186.039 10.63,8.84 175.41,-141.726 v 451.756 l -175.41,-141.725 -10.63,10.648 143.5,187.787 H 747.586 L 883.977,955.273 873.355,944.625 697.965,1095.22 V 632.816"
       style="fill:#ee2722;fill-opacity:1;fill-rule:evenodd;stroke:none"
       transform="matrix(0.13333333,0,0,-0.13333333,0,258.66667)" />
  </g>
</svg>
