<?xml version="1.0" encoding="UTF-8"?>
<!-- Generator: Adobe Illustrator 14.0.0, SVG Export Plug-In . SVG Version: 6.00 Build 43363)  -->
<!DOCTYPE svg PUBLIC "-//W3C//DTD SVG 1.1//EN" "http://www.w3.org/Graphics/SVG/1.1/DTD/svg11.dtd">
<svg version="1.1" id="Layer_1" xmlns="http://www.w3.org/2000/svg" xmlns:xlink="http://www.w3.org/1999/xlink" x="0px" y="0px" width="182.5px" height="269.5px" viewBox="0 0 182.5 269.5" enable-background="new 0 0 182.5 269.5" xml:space="preserve">
<g>
	<path fill="#FF0000" d="M168.293,33.188v130.045c0,31.961-19.594,52.414-44.673,61.359c-9.714,3.463-20.247,5.195-30.776,5.195   c-10.528,0-21.063-1.732-30.775-5.195c-25.079-8.945-44.673-29.398-44.673-61.359V33.188v-0.604l0.518-0.323   C38.5,19.409,65.691,12.697,93.084,12.697c26.642,0,53.502,6.347,74.691,19.564l0.518,0.322V33.188L168.293,33.188z"/>
	<path fill="#FFFFFF" d="M166.104,163.234V33.797c-20.748-12.774-46.977-18.912-73.021-18.912c-26.775,0-53.326,6.487-73.5,18.912   v129.438c0,30.879,18.952,50.646,43.211,59.299c9.473,3.379,19.759,5.068,30.049,5.068s20.576-1.689,30.05-5.068   C147.152,213.882,166.104,194.113,166.104,163.234L166.104,163.234z M88.729,133.933c21.766-1.396,11.136-25.55-1.881-16.181   l-2.76-4.892c4.41-2.489,19.636-1.279,22.47,6.242c6.849,18.17,12.763,13.174,9.23,6.307c-14.2-27.596,16.922-11.199,22.109-1.887   l-5.77-2.383c11.437,10.716,16.904,20.923,21.573,33.489c-9.617-13.184-16.079-19.996-25.584-25.713   c17.895,32.018,25.124,79-23.208,87.049c21.193-13.299,28.183-23.387,27.222-47.129l-2.492,9.721l-0.997-10.219h-1.994   c0.085,31.32-21.524,59.877-64.307,43.869c35.578,3.348,41.018-3.688,53.34-24.676c-0.181,0.074-0.359,0.148-0.538,0.225   c1.146-2.447,1.789-5.172,1.789-8.043c0-10.488-8.553-19.041-19.04-19.041c-7.445,0-13.914,4.313-17.041,10.566   c-61.864,4.572-40.91-76.621,14.89-74.686C11.869,136.574,90.321,176.343,88.729,133.933L88.729,133.933z M89.86,196.966   c-5.725,1.123-11.636,1.176-19.294-0.213c6.279-1.535,10.818-2.203,14.363-3.119C86.381,194.986,88.043,196.117,89.86,196.966   L89.86,196.966z M162.179,38.179v122.674c0,83.502-138.67,83.5-138.67,0V38.179l0.001-0.571l0.473-0.303   c38.969-24.972,98.759-24.946,137.723,0l0.474,0.303V38.179L162.179,38.179z M160.177,160.853V38.755   c-38.188-24.133-96.473-24.146-134.665,0v122.098C25.512,241.632,160.177,241.632,160.177,160.853L160.177,160.853z"/>
	<path fill-rule="evenodd" clip-rule="evenodd" d="M43.819,86.115l3.7-0.231c0.079,0.6,0.243,1.057,0.489,1.374   c0.398,0.51,0.973,0.762,1.717,0.762c0.554,0,0.981-0.129,1.283-0.39c0.299-0.261,0.448-0.562,0.448-0.905   c0-0.325-0.141-0.618-0.428-0.875s-0.949-0.501-1.992-0.729c-1.705-0.384-2.921-0.891-3.647-1.526   c-0.732-0.636-1.099-1.444-1.099-2.429c0-0.647,0.188-1.259,0.563-1.834c0.375-0.574,0.938-1.025,1.69-1.356   c0.753-0.329,1.784-0.492,3.094-0.492c1.608,0,2.836,0.299,3.68,0.896c0.844,0.598,1.345,1.55,1.506,2.854l-3.665,0.214   c-0.097-0.565-0.302-0.979-0.615-1.236c-0.311-0.255-0.741-0.383-1.289-0.383c-0.454,0-0.794,0.093-1.022,0.287   c-0.229,0.19-0.343,0.425-0.343,0.7c0,0.199,0.094,0.378,0.281,0.539c0.185,0.167,0.618,0.319,1.307,0.463   c1.699,0.366,2.915,0.738,3.65,1.113c0.734,0.375,1.271,0.837,1.605,1.395c0.334,0.553,0.504,1.174,0.504,1.863   c0,0.806-0.226,1.55-0.671,2.229c-0.445,0.683-1.069,1.198-1.872,1.55c-0.801,0.352-1.811,0.527-3.029,0.527   c-2.139,0-3.621-0.41-4.444-1.236C44.394,88.432,43.928,87.386,43.819,86.115L43.819,86.115z M48.113,38.375l7.8-1.539v19.03   c0,2.097-0.234,4.071-0.7,5.937c-0.464,1.858-1.195,3.493-2.189,4.888c-0.995,1.395-2.037,2.37-3.132,2.939   c-1.52,0.784-3.338,1.181-5.469,1.181c-1.23,0-2.572-0.116-4.026-0.363c-1.454-0.24-2.667-0.718-3.645-1.437   c-0.977-0.718-1.871-1.742-2.685-3.063c-0.812-1.321-1.365-2.684-1.665-4.087c-0.482-2.254-0.725-4.252-0.725-5.994V44.531   l7.8-3.463V56.37c0,1.94,0.383,3.452,1.143,4.533c0.765,1.09,1.824,1.635,3.185,1.635c1.342,0,2.401-0.537,3.167-1.61   c0.759-1.065,1.142-2.593,1.142-4.558V38.375L48.113,38.375z M59.957,36.066l7.299-0.577l9.52,18.849V34.335h7.364v35.849h-7.364   l-9.472-19.47v19.47h-7.347V36.066L59.957,36.066z M88.46,34.335h7.829v35.849H88.46V34.335L88.46,34.335z M116.273,64.33h-8.9   l-1.225,5.854h-7.982l9.501-35.463l8.519,0.577l9.507,34.886h-8.177L116.273,64.33L116.273,64.33z M114.637,56.659l-2.796-12.749   l-2.778,12.749H114.637L114.637,56.659z M115.169,25.366h2.726c0.012,0.421,0.018,0.785,0.018,1.09   c0,1.792-0.322,3.181-0.966,4.162c-0.646,0.984-1.472,1.478-2.483,1.478c-0.736,0-1.853-0.434-3.35-1.288   c-0.904-0.516-1.531-0.776-1.878-0.776c-0.336,0-0.595,0.148-0.777,0.438c-0.183,0.289-0.282,0.809-0.294,1.552h-2.69   c-0.012-0.388-0.018-0.727-0.018-1.016c0-1.726,0.341-3.096,1.019-4.112c0.677-1.016,1.483-1.528,2.413-1.528   c0.406,0,0.782,0.069,1.142,0.198c0.353,0.126,1.015,0.468,1.973,1.032c0.961,0.566,1.66,0.851,2.096,0.851   c0.312,0,0.562-0.147,0.753-0.446C115.041,26.705,115.146,26.159,115.169,25.366L115.169,25.366z M126.027,54.588   c0-5.788,1.154-8.757,3.449-11.978c2.302-3.229,5.504-4.838,9.607-4.838c4.209,0,7.453,1.585,9.73,4.756   c2.272,3.163,3.414,6.066,3.414,11.771c0,4.145-0.5,5.431-1.495,8.081c-0.994,2.65-2.431,4.714-4.309,6.192   c-1.884,1.478-4.221,2.213-7.029,2.213c-2.849,0-5.209-0.635-7.081-1.907c-1.866-1.28-3.382-3.293-4.545-6.052   C126.607,60.07,126.027,58.733,126.027,54.588L126.027,54.588z M133.845,54.638c0,3.583,0.469,4.037,1.419,5.604   c0.945,1.562,2.242,2.345,3.873,2.345c1.678,0,2.98-0.767,3.897-2.296c0.92-1.535,1.383-2.169,1.383-6.132   c0-3.344-0.48-4.242-1.442-5.785c-0.957-1.537-2.26-2.304-3.908-2.304c-1.572,0-2.836,0.777-3.791,2.345   C134.323,49.977,133.845,51.03,133.845,54.638L133.845,54.638z M64.347,88.2h-4.43l-0.609,2.077h-3.973l4.729-12.583h4.239   l4.73,12.583h-4.068L64.347,88.2L64.347,88.2z M63.532,85.479l-1.392-4.523l-1.383,4.523H63.532L63.532,85.479z M63.893,74.581   h1.355c0.007,0.149,0.01,0.278,0.01,0.387c0,0.636-0.161,1.127-0.48,1.477c-0.322,0.349-0.732,0.524-1.236,0.524   c-0.366,0-0.923-0.152-1.667-0.457c-0.451-0.182-0.762-0.276-0.935-0.276c-0.167,0-0.296,0.053-0.387,0.156   s-0.141,0.287-0.146,0.551h-1.339c-0.006-0.138-0.009-0.258-0.009-0.36c0-0.612,0.17-1.099,0.507-1.459s0.738-0.542,1.201-0.542   c0.202,0,0.39,0.023,0.568,0.07c0.176,0.044,0.504,0.167,0.981,0.366c0.478,0.202,0.826,0.302,1.043,0.302   c0.155,0,0.278-0.053,0.375-0.159C63.828,75.056,63.881,74.862,63.893,74.581L63.893,74.581z M69.2,83.994   c0-2.054,0.574-3.653,1.717-4.796c1.146-1.145,2.739-1.716,4.781-1.716c2.095,0,3.708,0.563,4.843,1.687   c1.131,1.122,1.699,2.698,1.699,4.723c0,1.471-0.249,2.678-0.744,3.618c-0.495,0.94-1.211,1.672-2.145,2.197   c-0.938,0.524-2.101,0.785-3.498,0.785c-1.418,0-2.593-0.226-3.524-0.677c-0.929-0.454-1.682-1.169-2.262-2.147   C69.49,86.688,69.2,85.464,69.2,83.994L69.2,83.994z M73.091,84.011c0,1.271,0.234,2.182,0.706,2.739   c0.472,0.553,1.116,0.832,1.928,0.832c0.835,0,1.482-0.272,1.939-0.814c0.457-0.545,0.688-1.521,0.688-2.927   c0-1.187-0.24-2.051-0.718-2.599c-0.478-0.545-1.125-0.817-1.945-0.817c-0.782,0-1.412,0.275-1.887,0.832   C73.328,81.811,73.091,82.731,73.091,84.011L73.091,84.011z M95.432,77.695h3.896v6.841c0,1.435-0.128,2.528-0.384,3.278   c-0.255,0.75-0.764,1.386-1.535,1.907c-0.77,0.519-1.754,0.779-2.955,0.779c-1.271,0-2.256-0.17-2.953-0.516   c-0.7-0.343-1.239-0.844-1.617-1.506c-0.381-0.659-0.606-1.476-0.674-2.449l3.715-0.507c0.006,0.554,0.056,0.967,0.146,1.237   c0.091,0.269,0.246,0.486,0.463,0.65c0.149,0.112,0.36,0.164,0.636,0.164c0.434,0,0.753-0.161,0.958-0.483   c0.202-0.325,0.305-0.87,0.305-1.634V77.695L95.432,77.695z M100.842,83.994c0-2.054,0.574-3.653,1.717-4.796   c1.146-1.145,2.739-1.716,4.781-1.716c2.095,0,3.709,0.563,4.842,1.687c1.131,1.122,1.699,2.698,1.699,4.723   c0,1.471-0.249,2.678-0.744,3.618c-0.494,0.94-1.21,1.672-2.145,2.197c-0.938,0.524-2.1,0.785-3.497,0.785   c-1.418,0-2.593-0.226-3.524-0.677c-0.929-0.454-1.682-1.169-2.262-2.147C101.132,86.688,100.842,85.464,100.842,83.994   L100.842,83.994z M104.732,84.011c0,1.271,0.234,2.182,0.706,2.739c0.472,0.553,1.116,0.832,1.928,0.832   c0.835,0,1.482-0.272,1.938-0.814c0.458-0.545,0.689-1.521,0.689-2.927c0-1.187-0.24-2.051-0.718-2.599   c-0.478-0.545-1.126-0.817-1.945-0.817c-0.782,0-1.412,0.275-1.887,0.832C104.97,81.811,104.732,82.731,104.732,84.011   L104.732,84.011z M122.529,88.2h-4.43l-0.609,2.077h-3.973l4.729-12.583h4.238l4.731,12.583h-4.068L122.529,88.2L122.529,88.2z    M121.715,85.479l-1.392-4.523l-1.383,4.523H121.715L121.715,85.479z M127.066,83.994c0-2.054,0.574-3.653,1.717-4.796   c1.146-1.145,2.739-1.716,4.781-1.716c2.095,0,3.709,0.563,4.842,1.687c1.131,1.122,1.699,2.698,1.699,4.723   c0,1.471-0.249,2.678-0.744,3.618c-0.495,0.94-1.21,1.672-2.144,2.197c-0.938,0.524-2.101,0.785-3.498,0.785   c-1.418,0-2.593-0.226-3.524-0.677c-0.929-0.454-1.682-1.169-2.262-2.147C127.356,86.688,127.066,85.464,127.066,83.994   L127.066,83.994z M130.957,84.011c0,1.271,0.234,2.182,0.706,2.739c0.472,0.553,1.116,0.832,1.928,0.832   c0.835,0,1.482-0.272,1.939-0.814c0.456-0.545,0.688-1.521,0.688-2.927c0-1.187-0.24-2.051-0.718-2.599   c-0.478-0.545-1.125-0.817-1.945-0.817c-0.782,0-1.412,0.275-1.887,0.832C131.194,81.811,130.957,82.731,130.957,84.011   L130.957,84.011z"/>
	<path fill-rule="evenodd" clip-rule="evenodd" fill="#0D6633" d="M80.798,126.933c3.661-0.654,3.721-0.539,5.892-4.668   c1.876,3.875-0.445,7.166,1.325,10.678C83.234,133.847,80.67,130.72,80.798,126.933L80.798,126.933z M91.67,118.887   c0.907,0,1.649,0.743,1.649,1.65s-0.742,1.65-1.649,1.65c-0.908,0-1.65-0.742-1.65-1.65S90.762,118.887,91.67,118.887   L91.67,118.887z M43.674,247.871H36.34l-1.009,5.551h-6.577l7.828-33.621l7.829,3.039l7.022,30.582h-6.736L43.674,247.871   L43.674,247.871z M42.325,240.599l-2.304-12.088l-2.29,12.088H42.325L42.325,240.599z M52.607,253.421v-26.936   c3.296,0.895,17.656,1.613,18.799,9.33c0.274,1.85-0.245,3.477-0.736,4.83c-0.493,1.354-1.171,2.453-2.033,3.295   c-0.549,0.537-1.305,0.979-2.26,1.322c0.767,0.416,1.324,0.83,1.678,1.246c1.984,2.33,2.571,4.48,5.045,6.912h-7.275   c-1.163-1.215-4.854-6.959-6.185-6.959h-0.567v6.959H52.607L52.607,253.421z M59.072,240.105c11.061,2.678,4.996-8.293,0-6.834   V240.105L59.072,240.105z M87.005,250.91h-7.334l-1.009,2.512h-6.577l7.828-19.643l7.222,0.404l7.63,19.238h-6.736L87.005,250.91   L87.005,250.91z M85.656,246.474l-2.304-6.01l-2.29,6.01H85.656L85.656,246.474z M97.356,253.421v-19.238   c11.404-3.309,25.157,0.645,15.213,11.293c-0.715,0.766-1.777,0.303-2.861,1.004c4.259,2.305,5.487,3.074,6.723,6.941h-7.275   c-0.713-2.133-1.553-5.744-4.767-5.744h-0.567v5.744H97.356L97.356,253.421z M103.821,243.347c7.702,0,8.115-5.012,0-5.012V243.347   L103.821,243.347z M130.943,249.492h-7.941l-1.009,3.93h-6.577l7.828-23.898l8.234-3.646l7.631,27.545h-7.143L130.943,249.492   L130.943,249.492z M129.798,244.447l-2.507-9.857l-2.896,9.857H129.798L129.798,244.447z M144.997,245.349   c0.66,1.363,1.61,2.035,2.843,2.035c0.916,0,1.625-0.344,2.124-1.041c0.495-0.695,0.742-1.502,0.742-2.418   c0-0.869-0.232-1.652-0.708-2.34c-0.476-0.689-1.571-1.34-3.298-1.949c-2.823-1.025-4.836-2.381-6.039-4.078   c-1.212-1.699-1.818-3.859-1.818-6.49c0-1.73,0.32-3.361,0.931-4.9c2.062-5.191,16.268-12.174,15.916-8.635   c-0.17,1.713-0.34,3.424-0.51,5.137c-0.017-0.57-8.8,3.359-9.18,5.588c-0.105,0.625-0.567,1.135-0.567,1.871   c0,0.533,0.161,1.006,0.466,1.441c0.311,0.441,0.393,0.844,1.529,1.236c2.815,0.971,4.826,1.973,6.043,2.975   c1.218,1.002,2.105,2.238,2.658,3.727c0.553,1.479,0.834,3.139,0.834,4.979c0,2.152-0.373,4.141-1.11,5.957   c-0.737,1.822-1.771,3.201-3.1,4.141c-1.324,0.939-2.997,1.408-5.015,1.408c-3.541,0-6.337-0.918-7.358-3.303l-1.604-3.746   L144.997,245.349L144.997,245.349z M115.931,191.019c-19.313,30.336-59.945,29.799-81.257-9.969   c24.022,22.74,37.684,23.213,58.678,17.15c1.456,0.359,2.978,0.551,4.541,0.551c5.72,0,10.863-2.545,14.359-6.561   C113.453,191.804,114.677,191.414,115.931,191.019L115.931,191.019z"/>
	<path fill-rule="evenodd" clip-rule="evenodd" fill="#FFCC00" d="M126.897,126.96c23.706,17.779,20.7,29.24,20.19,58.326   C142.316,165.583,136.394,144.402,126.897,126.96L126.897,126.96z M91.67,118.888c0.908,0,1.649,0.741,1.649,1.65   s-0.741,1.65-1.649,1.65c-0.909,0-1.65-0.741-1.65-1.65S90.761,118.888,91.67,118.888L91.67,118.888z M92.626,116.742   c3.991-0.683,7.073,3.368,7.353,7.478c0.44,6.473-8.964,9.051-10.821,8.131c-1.489-1.527-0.064-6.006-0.931-8.873   C87.066,119.633,85.386,117.98,92.626,116.742L92.626,116.742z M83.278,114l3.24,6.979c-6.35,5.911-6.728,1.474-7.976,13.209   C70.576,126.933,76.897,113.628,83.278,114L83.278,114z M83.055,191.617c-7.91,1.094-15.544,0.797-22.957-0.598l4.486-2.492   l-13.459-2.99l10.469-1.746c-25.504-4.895-27.83-19.662-29.163-36.141l5.982,5.732c-4.889-25.395,5.234-37.173,20.189-48.355   c-31.859,42.193-7.823,61.355,25.41,61.676c-3.196,3.408-5.159,7.986-5.159,13.01C78.854,184.21,80.429,188.353,83.055,191.617   L83.055,191.617z M108.404,163.851c0.349-0.084,0.697-0.164,1.046-0.25l-0.171,0.867   C108.994,164.253,108.701,164.048,108.404,163.851L108.404,163.851z"/>
	<path fill-rule="evenodd" clip-rule="evenodd" d="M97.924,160.636c10.508,0,19.078,8.57,19.078,19.078s-8.57,19.078-19.078,19.078   s-19.077-8.57-19.077-19.078S87.416,160.636,97.924,160.636L97.924,160.636z M93.188,162.603l4.647-0.707l4.664,0.529l-0.164,1.639   l-4.378,2.123l-4.749-1.766L93.188,162.603L93.188,162.603z M104.754,196.785l4.064-2.363l3.301-3.336l-1.155-1.174l-4.741,1.092   l-2.594,4.352L104.754,196.785L104.754,196.785z M91.691,196.785l-4.063-2.363l-3.302-3.336l1.155-1.174l4.741,1.092l2.594,4.352   L91.691,196.785L91.691,196.785z M115.873,178.802l-0.852-4.625l-2.024-4.234l-1.495,0.691l-0.576,4.832l3.222,3.91   L115.873,178.802L115.873,178.802z M79.637,178.802l0.851-4.625l2.025-4.234l1.495,0.691l0.575,4.832l-3.222,3.91L79.637,178.802   L79.637,178.802z M112.957,181.15l-2.365,6.9l-4.553,2.285l-2.574-4.363l2.591-7.188l3.912-2.004L112.957,181.15L112.957,181.15z    M82.931,181.15l2.364,6.9l4.553,2.285l2.574-4.363l-2.59-7.188l-3.913-2.004L82.931,181.15L82.931,181.15z M94.228,186.71   l7.294-0.107l3.689,3.514l-3.238,3.898l-7.638-0.01L91.126,191L94.228,186.71L94.228,186.71z M109.776,170.634l-5.753-4.486   l-5.061,0.574l0.229,5.063l6.098,4.602l4.371-0.461L109.776,170.634L109.776,170.634z M86.193,170.634l5.752-4.486l5.062,0.574   l-0.229,5.063l-6.098,4.602l-4.371-0.461L86.193,170.634L86.193,170.634z"/>
</g>
</svg>